<svg version="1.1" xmlns="http://www.w3.org/2000/svg" width="415" height="411">
    <path
        d="M0 0 C136.95 0 273.9 0 415 0 C415 135.63 415 271.26 415 411 C278.05 411 141.1 411 0 411 C0 275.37 0 139.74 0 0 Z "
        fill="#FEFEFE" transform="translate(0,0)" />
    <path
        d="M0 0 C1.26447464 -0.0071553 2.52894928 -0.01431061 3.83174133 -0.02168274 C5.23074316 -0.02452281 6.62974526 -0.02723456 8.02874756 -0.02983093 C9.50402485 -0.03609836 10.97930058 -0.04274541 12.45457458 -0.04974365 C17.29667061 -0.07075254 22.13876683 -0.08114279 26.980896 -0.09111023 C28.6498491 -0.09515891 30.31880205 -0.09927587 31.98775482 -0.10346031 C39.82913828 -0.12250469 47.67051236 -0.13673753 55.51191449 -0.14507228 C64.55466587 -0.15484349 73.59717239 -0.18116303 82.6398375 -0.22157317 C89.63531647 -0.251759 96.63072533 -0.26654347 103.62626815 -0.26985329 C107.80165846 -0.27220088 111.97678696 -0.28112321 116.15210724 -0.30631447 C120.08218717 -0.32964372 124.01183379 -0.33380916 127.9419651 -0.32355309 C129.38024909 -0.3230588 130.81855476 -0.3293477 132.25677299 -0.34310913 C140.17639044 -0.4146163 146.14937525 -0.32699369 152.840271 4.14717102 C156.89253002 9.23847082 157.96637659 12.95942379 157.95379639 19.36274719 C157.95372086 20.64384872 157.95364532 21.92495026 157.9535675 23.24487305 C157.94846086 24.64329568 157.94324487 26.04171792 157.93792725 27.44013977 C157.93606188 28.87074738 157.93463854 30.30135563 157.93363953 31.73196411 C157.92982366 35.49503853 157.92000132 39.25807427 157.90893555 43.02113342 C157.89870143 46.86196876 157.89413762 50.70281035 157.88909912 54.5436554 C157.87837822 62.07817822 157.86131296 69.6126692 157.840271 77.14717102 C158.90463379 77.12098694 159.96899658 77.09480286 161.06561279 77.06782532 C165.02568426 76.97712326 168.9856645 76.91985013 172.94647217 76.87251282 C174.65854344 76.84741388 176.37050803 76.81332673 178.08221436 76.76997375 C180.54740745 76.70911363 183.01118085 76.6809167 185.47698975 76.65888977 C186.23863937 76.63308334 187.000289 76.60727692 187.78501892 76.58068848 C191.51451477 76.57873328 193.52901371 76.91477016 196.5434494 79.16550446 C199.44868885 82.93700127 199.535878 85.84933632 199.46173096 90.42146301 C199.46811978 91.25116844 199.4745086 92.08087386 199.48109102 92.93572187 C199.49634482 95.7143788 199.47587766 98.49161074 199.45550537 101.2702179 C199.45900645 103.26282219 199.46466488 105.25542369 199.47232056 107.24801636 C199.48657994 112.65922577 199.46949547 118.06992773 199.44603539 123.48108864 C199.4259437 129.14155015 199.43180507 134.80199024 199.43414307 140.46247864 C199.43408948 149.96862671 199.41432164 159.47457614 199.38226318 168.98066711 C199.34536967 179.97396532 199.33658747 190.96700325 199.3435607 201.96035528 C199.34986405 212.53178265 199.33911448 223.10312068 199.31959534 233.67453003 C199.31141659 238.17522453 199.30871267 242.6758734 199.31028748 247.17657471 C199.31116586 252.47568964 199.29696246 257.77455689 199.27106094 263.07360649 C199.26389347 265.01946754 199.26181831 266.96535493 199.26517868 268.91122627 C199.26888818 271.56538001 199.25416446 274.21880884 199.23468018 276.87287903 C199.2400081 277.64476673 199.24533603 278.41665442 199.25082541 279.21193266 C199.19424586 283.67251121 198.68644359 286.64628981 195.840271 290.14717102 C192.720611 291.18705769 190.54048624 291.28048897 187.26741028 291.29434204 C186.10791367 291.30149734 184.94841705 291.30865265 183.75378418 291.31602478 C182.48045227 291.31871368 181.20712036 291.32140259 179.89520264 291.32417297 C178.54165981 291.33043887 177.1881187 291.33708578 175.83457947 291.34408569 C171.38987421 291.36510689 166.94516866 291.37548365 162.50042725 291.38545227 C160.97037678 291.38950002 159.4403265 291.39361695 157.91027641 291.39780235 C150.72457145 291.41684677 143.53887673 291.4310815 136.35315138 291.43941432 C128.05517699 291.44919583 119.7574687 291.47554206 111.45958811 291.51591522 C105.046777 291.5460478 98.63404233 291.56088032 92.22116178 291.56419533 C88.39016532 291.56654838 84.5594534 291.57554191 80.72853279 291.60065651 C77.12595633 291.62389376 73.52385268 291.62818843 69.92122078 291.61789513 C67.96820157 291.6171618 66.01520659 291.6362819 64.06228638 291.65596008 C62.31881172 291.64554436 62.31881172 291.64554436 60.54011536 291.63491821 C59.53003953 291.63730657 58.5199637 291.63969492 57.47927952 291.64215565 C54.12535854 291.01307874 52.96555511 289.75605939 50.840271 287.14717102 C49.24614816 283.95892534 49.73852364 280.5182044 49.777771 277.02217102 C49.78228271 276.26806946 49.78679443 275.5139679 49.79144287 274.73701477 C49.803236 272.87369975 49.82117158 271.01042547 49.840271 269.14717102 C48.95157318 269.15605347 48.06287537 269.16493591 47.14724731 269.17408752 C38.76096747 269.25432619 30.37481706 269.31518255 21.9882412 269.35441971 C17.67686933 269.37527036 13.36581538 269.40354144 9.05462646 269.44892883 C4.89193229 269.49247729 0.72954339 269.5163271 -3.43336105 269.52667999 C-5.01937031 269.53405528 -6.60536337 269.54845772 -8.19124222 269.57009125 C-10.4175923 269.59924632 -12.64269056 269.60312219 -14.86920166 269.60127258 C-16.76782455 269.61459625 -16.76782455 269.61459625 -18.70480347 269.62818909 C-23.91941371 268.90217583 -26.96016467 266.44399733 -30.472229 262.64717102 C-32.82161907 259.16659315 -33.28367913 256.23987467 -33.29115677 252.09536171 C-33.29499791 251.29340012 -33.29883906 250.49143853 -33.3027966 249.66517508 C-33.30193012 248.789892 -33.30106364 247.91460893 -33.3001709 247.01280212 C-33.30314202 246.07848433 -33.30611314 245.14416653 -33.3091743 244.18153608 C-33.31786257 241.04328167 -33.31936965 237.90506541 -33.32086182 234.76679993 C-33.32548983 232.51981525 -33.33051447 230.27283136 -33.33590698 228.02584839 C-33.34903304 221.9163734 -33.35547614 215.8069094 -33.35991764 209.6974225 C-33.36284754 205.88215137 -33.36695215 202.06688324 -33.37142181 198.25161362 C-33.38352947 187.68635751 -33.39391236 177.12110402 -33.39729691 166.55584145 C-33.39751647 165.87990833 -33.39773604 165.2039752 -33.39796226 164.50755926 C-33.39818053 163.83002133 -33.39839881 163.1524834 -33.3986237 162.45441401 C-33.39906717 161.08149187 -33.39951373 159.70856972 -33.39996338 158.33564758 C-33.40018481 157.65463267 -33.40040624 156.97361775 -33.40063438 156.27196603 C-33.40458325 145.2346493 -33.42204112 134.19739856 -33.4453229 123.16010733 C-33.46903787 111.82592233 -33.48124081 100.4917816 -33.48266482 89.15756738 C-33.4837141 82.79472509 -33.48964827 76.43197592 -33.50748444 70.06915665 C-33.52393136 64.0855795 -33.52613701 58.1021658 -33.51734543 52.11857414 C-33.51657329 49.92155839 -33.52094094 47.72453396 -33.53080368 45.52754021 C-33.54347198 42.52999994 -33.53767407 39.5330431 -33.52722168 36.5355072 C-33.53527808 35.66468557 -33.54333449 34.79386394 -33.55163503 33.89665377 C-33.5108229 28.89765691 -32.9197806 25.48362276 -30.159729 21.14717102 C-27.66967882 18.78817611 -25.92130709 17.35149685 -22.597229 16.45967102 C-19.11178072 14.58289117 -18.67971331 11.98486435 -17.25738525 8.40888977 C-15.532414 4.85458958 -13.43218729 3.32880988 -10.159729 1.14717102 C-6.78240865 -0.00663783 -3.54958328 0.01379699 0 0 Z "
        fill="#FDFDFD" transform="translate(127.15972900390625,80.85282897949219)" />
    <path
        d="M0 0 C1.26447464 -0.0071553 2.52894928 -0.01431061 3.83174133 -0.02168274 C5.23074316 -0.02452281 6.62974526 -0.02723456 8.02874756 -0.02983093 C9.50402485 -0.03609836 10.97930058 -0.04274541 12.45457458 -0.04974365 C17.29667061 -0.07075254 22.13876683 -0.08114279 26.980896 -0.09111023 C28.6498491 -0.09515891 30.31880205 -0.09927587 31.98775482 -0.10346031 C39.82913828 -0.12250469 47.67051236 -0.13673753 55.51191449 -0.14507228 C64.55466587 -0.15484349 73.59717239 -0.18116303 82.6398375 -0.22157317 C89.63531647 -0.251759 96.63072533 -0.26654347 103.62626815 -0.26985329 C107.80165846 -0.27220088 111.97678696 -0.28112321 116.15210724 -0.30631447 C120.08218717 -0.32964372 124.01183379 -0.33380916 127.9419651 -0.32355309 C129.38024909 -0.3230588 130.81855476 -0.3293477 132.25677299 -0.34310913 C140.17639044 -0.4146163 146.14937525 -0.32699369 152.840271 4.14717102 C156.89253002 9.23847082 157.96637659 12.95942379 157.95379639 19.36274719 C157.95372086 20.64384872 157.95364532 21.92495026 157.9535675 23.24487305 C157.94846086 24.64329568 157.94324487 26.04171792 157.93792725 27.44013977 C157.93606188 28.87074738 157.93463854 30.30135563 157.93363953 31.73196411 C157.92982366 35.49503853 157.92000132 39.25807427 157.90893555 43.02113342 C157.89870143 46.86196876 157.89413762 50.70281035 157.88909912 54.5436554 C157.87837822 62.07817822 157.86131296 69.6126692 157.840271 77.14717102 C158.90463379 77.12098694 159.96899658 77.09480286 161.06561279 77.06782532 C165.02568426 76.97712326 168.9856645 76.91985013 172.94647217 76.87251282 C174.65854344 76.84741388 176.37050803 76.81332673 178.08221436 76.76997375 C180.54740745 76.70911363 183.01118085 76.6809167 185.47698975 76.65888977 C186.23863937 76.63308334 187.000289 76.60727692 187.78501892 76.58068848 C191.51451477 76.57873328 193.52901371 76.91477016 196.5434494 79.16550446 C199.44868885 82.93700127 199.535878 85.84933632 199.46173096 90.42146301 C199.46811978 91.25116844 199.4745086 92.08087386 199.48109102 92.93572187 C199.49634482 95.7143788 199.47587766 98.49161074 199.45550537 101.2702179 C199.45900645 103.26282219 199.46466488 105.25542369 199.47232056 107.24801636 C199.48657994 112.65922577 199.46949547 118.06992773 199.44603539 123.48108864 C199.4259437 129.14155015 199.43180507 134.80199024 199.43414307 140.46247864 C199.43408948 149.96862671 199.41432164 159.47457614 199.38226318 168.98066711 C199.34536967 179.97396532 199.33658747 190.96700325 199.3435607 201.96035528 C199.34986405 212.53178265 199.33911448 223.10312068 199.31959534 233.67453003 C199.31141659 238.17522453 199.30871267 242.6758734 199.31028748 247.17657471 C199.31116586 252.47568964 199.29696246 257.77455689 199.27106094 263.07360649 C199.26389347 265.01946754 199.26181831 266.96535493 199.26517868 268.91122627 C199.26888818 271.56538001 199.25416446 274.21880884 199.23468018 276.87287903 C199.2400081 277.64476673 199.24533603 278.41665442 199.25082541 279.21193266 C199.19424586 283.67251121 198.68644359 286.64628981 195.840271 290.14717102 C192.720611 291.18705769 190.54048624 291.28048897 187.26741028 291.29434204 C186.10791367 291.30149734 184.94841705 291.30865265 183.75378418 291.31602478 C182.48045227 291.31871368 181.20712036 291.32140259 179.89520264 291.32417297 C178.54165981 291.33043887 177.1881187 291.33708578 175.83457947 291.34408569 C171.38987421 291.36510689 166.94516866 291.37548365 162.50042725 291.38545227 C160.97037678 291.38950002 159.4403265 291.39361695 157.91027641 291.39780235 C150.72457145 291.41684677 143.53887673 291.4310815 136.35315138 291.43941432 C128.05517699 291.44919583 119.7574687 291.47554206 111.45958811 291.51591522 C105.046777 291.5460478 98.63404233 291.56088032 92.22116178 291.56419533 C88.39016532 291.56654838 84.5594534 291.57554191 80.72853279 291.60065651 C77.12595633 291.62389376 73.52385268 291.62818843 69.92122078 291.61789513 C67.96820157 291.6171618 66.01520659 291.6362819 64.06228638 291.65596008 C62.31881172 291.64554436 62.31881172 291.64554436 60.54011536 291.63491821 C59.53003953 291.63730657 58.5199637 291.63969492 57.47927952 291.64215565 C54.12535854 291.01307874 52.96555511 289.75605939 50.840271 287.14717102 C49.24614816 283.95892534 49.73852364 280.5182044 49.777771 277.02217102 C49.78228271 276.26806946 49.78679443 275.5139679 49.79144287 274.73701477 C49.803236 272.87369975 49.82117158 271.01042547 49.840271 269.14717102 C48.95157318 269.15605347 48.06287537 269.16493591 47.14724731 269.17408752 C38.76096747 269.25432619 30.37481706 269.31518255 21.9882412 269.35441971 C17.67686933 269.37527036 13.36581538 269.40354144 9.05462646 269.44892883 C4.89193229 269.49247729 0.72954339 269.5163271 -3.43336105 269.52667999 C-5.01937031 269.53405528 -6.60536337 269.54845772 -8.19124222 269.57009125 C-10.4175923 269.59924632 -12.64269056 269.60312219 -14.86920166 269.60127258 C-16.76782455 269.61459625 -16.76782455 269.61459625 -18.70480347 269.62818909 C-23.91941371 268.90217583 -26.96016467 266.44399733 -30.472229 262.64717102 C-32.82161907 259.16659315 -33.28367913 256.23987467 -33.29115677 252.09536171 C-33.29499791 251.29340012 -33.29883906 250.49143853 -33.3027966 249.66517508 C-33.30193012 248.789892 -33.30106364 247.91460893 -33.3001709 247.01280212 C-33.30314202 246.07848433 -33.30611314 245.14416653 -33.3091743 244.18153608 C-33.31786257 241.04328167 -33.31936965 237.90506541 -33.32086182 234.76679993 C-33.32548983 232.51981525 -33.33051447 230.27283136 -33.33590698 228.02584839 C-33.34903304 221.9163734 -33.35547614 215.8069094 -33.35991764 209.6974225 C-33.36284754 205.88215137 -33.36695215 202.06688324 -33.37142181 198.25161362 C-33.38352947 187.68635751 -33.39391236 177.12110402 -33.39729691 166.55584145 C-33.39751647 165.87990833 -33.39773604 165.2039752 -33.39796226 164.50755926 C-33.39818053 163.83002133 -33.39839881 163.1524834 -33.3986237 162.45441401 C-33.39906717 161.08149187 -33.39951373 159.70856972 -33.39996338 158.33564758 C-33.40018481 157.65463267 -33.40040624 156.97361775 -33.40063438 156.27196603 C-33.40458325 145.2346493 -33.42204112 134.19739856 -33.4453229 123.16010733 C-33.46903787 111.82592233 -33.48124081 100.4917816 -33.48266482 89.15756738 C-33.4837141 82.79472509 -33.48964827 76.43197592 -33.50748444 70.06915665 C-33.52393136 64.0855795 -33.52613701 58.1021658 -33.51734543 52.11857414 C-33.51657329 49.92155839 -33.52094094 47.72453396 -33.53080368 45.52754021 C-33.54347198 42.52999994 -33.53767407 39.5330431 -33.52722168 36.5355072 C-33.53527808 35.66468557 -33.54333449 34.79386394 -33.55163503 33.89665377 C-33.5108229 28.89765691 -32.9197806 25.48362276 -30.159729 21.14717102 C-27.66967882 18.78817611 -25.92130709 17.35149685 -22.597229 16.45967102 C-19.11178072 14.58289117 -18.67971331 11.98486435 -17.25738525 8.40888977 C-15.532414 4.85458958 -13.43218729 3.32880988 -10.159729 1.14717102 C-6.78240865 -0.00663783 -3.54958328 0.01379699 0 0 Z M-14.159729 8.14717102 C-16.82910871 12.15124058 -16.44326792 15.66330486 -16.42715454 20.31314087 C-16.43168565 21.26293845 -16.43621677 22.21273603 -16.44088519 23.19131535 C-16.45359006 26.38799382 -16.45190489 29.58450324 -16.45025635 32.78120422 C-16.45623783 35.06745118 -16.46304249 37.35369611 -16.47061157 39.63993835 C-16.48831828 45.8610503 -16.49296894 52.08210727 -16.49424314 58.30324197 C-16.4961395 63.49219827 -16.50349406 68.68114169 -16.51058733 73.87009305 C-16.52595523 85.41112169 -16.53192366 96.9521189 -16.53057663 108.49315629 C-16.53049672 109.18585371 -16.53041681 109.87855113 -16.53033447 110.59223938 C-16.53025271 111.28578225 -16.53017095 111.97932513 -16.53008671 112.69388445 C-16.52927395 123.9317542 -16.54840792 135.16948987 -16.57661121 146.40732083 C-16.6053383 157.94488617 -16.61878528 169.48236879 -16.61742365 181.0199725 C-16.61691314 187.49798814 -16.62264537 193.97585212 -16.64377975 200.45383644 C-16.66311366 206.54660945 -16.66331964 212.63908539 -16.64874649 218.73186874 C-16.64665122 220.96919754 -16.6514018 223.20654469 -16.66346741 225.44384193 C-16.67886401 228.49632942 -16.66964815 231.54778555 -16.65420532 234.60025024 C-16.66449245 235.48731779 -16.67477957 236.37438533 -16.68537843 237.28833371 C-16.6249143 242.69029455 -15.92926385 245.98088266 -12.159729 250.14717102 C-7.95682548 252.87835065 -4.70400303 253.52302394 0.26069641 253.52812195 C2.16803558 253.54081116 2.16803558 253.54081116 4.11390686 253.55375671 C5.51040779 253.5479247 6.90690744 253.54178025 8.30340576 253.53535461 C9.78384793 253.53942263 11.26428706 253.54476581 12.74472046 253.55128479 C16.75497961 253.56493569 20.76500665 253.55966933 24.77526975 253.55014753 C28.97564894 253.5425408 33.17600856 253.54959923 37.37638855 253.55430603 C44.42843181 253.55976003 51.48038074 253.55258069 58.53240967 253.5382843 C66.68271042 253.52195211 74.83278609 253.5272518 82.9830814 253.54376352 C89.98536529 253.55738098 96.98758145 253.55929697 103.9898743 253.55144751 C108.17009638 253.54677323 112.35021267 253.5461395 116.53042793 253.55605698 C120.45968405 253.56472841 124.3886501 253.5587017 128.31787491 253.54137421 C129.75901368 253.53741056 131.20017691 253.53854136 132.64130592 253.5451622 C134.60980477 253.55337154 136.57835702 253.54124697 138.54682922 253.52812195 C140.1985153 253.52642533 140.1985153 253.52642533 141.88356876 253.52469444 C146.49118914 252.93637527 149.02842879 251.04921792 152.090271 247.64717102 C159.42768875 237.16514565 157.4560915 213.85567764 155.49932861 201.68690491 C152.64056245 190.67040938 141.10728727 181.81013262 131.840271 176.14717102 C131.180271 176.14717102 130.520271 176.14717102 129.840271 176.14717102 C127.28637022 171.03936947 126.83228375 168.29655108 127.19573975 162.55732727 C127.07572743 159.97237966 127.07572743 159.97237966 124.82855225 158.33076477 C124.17241943 157.94017883 123.51628662 157.5495929 122.840271 157.14717102 C122.23441162 157.66666321 121.62855225 158.1861554 121.0043335 158.72138977 C115.26094144 163.50165916 109.74786646 167.28428853 102.840271 170.14717102 C101.94566162 170.54033508 101.05105225 170.93349915 100.1293335 171.33857727 C85.01435796 177.03148801 66.05545732 175.91583292 51.36761475 169.67060852 C35.26392485 162.32680784 23.60824618 150.64411053 16.840271 134.14717102 C16.448396 133.22033508 16.056521 132.29349915 15.652771 131.33857727 C10.16881796 116.39099696 11.3956722 98.19242061 17.28167725 83.56513977 C25.58691152 65.77922042 38.85733392 54.45891467 56.840271 47.14717102 C64.40707668 44.67478231 72.01999456 44.91321186 79.902771 45.02217102 C81.14993896 45.03119446 82.39710693 45.0402179 83.68206787 45.04951477 C86.73500604 45.07290893 89.78753405 45.10568928 92.840271 45.14717102 C92.840271 45.80717102 92.840271 46.46717102 92.840271 47.14717102 C91.84253662 46.98732727 90.84480225 46.82748352 89.8168335 46.66279602 C71.58602607 44.08063244 55.02797563 47.72515461 39.793396 58.25263977 C27.17568285 68.0993358 18.3197819 81.41586117 14.840271 97.14717102 C13.59569224 110.78416101 14.02927978 123.60280903 19.840271 136.14717102 C20.28628662 137.13717102 20.73230225 138.12717102 21.1918335 139.14717102 C29.02960821 154.91029335 43.42378781 165.63543331 59.93011475 171.18623352 C77.94139902 175.95065235 94.22926659 172.69981667 110.57855225 164.13154602 C115.62931883 161.05874431 119.73596148 157.37674671 123.840271 153.14717102 C124.48609131 152.51037415 125.13191162 151.87357727 125.79730225 151.21748352 C130.24716934 146.54463834 132.90590638 141.43910891 135.57855225 135.58857727 C136.840271 133.14717102 136.840271 133.14717102 138.840271 132.14717102 C136.47476713 139.32149525 133.16272803 144.80190546 128.449646 150.70185852 C126.47376197 153.21615208 126.47376197 153.21615208 126.840271 157.14717102 C129.55262723 158.88307901 130.74787832 159.15622913 134.027771 158.83467102 C141.79671465 159.47146968 147.37524516 166.43516464 152.527771 171.86201477 C153.65320238 173.26377515 153.65320238 173.26377515 154.840271 173.14717102 C154.93374308 152.40670098 155.00426432 131.66626571 155.04751968 110.92562771 C155.0681384 101.29522088 155.09624583 91.66494498 155.14202881 82.03462219 C155.18191768 73.64010167 155.20770883 65.24567598 155.21662498 56.85106331 C155.22183625 52.40679913 155.23407024 47.96280624 155.26319122 43.51862907 C155.29039276 39.3333705 155.29870647 35.14849432 155.29270172 30.96315575 C155.29379985 29.42930776 155.30172569 27.89544666 155.3170929 26.36167526 C155.64461371 15.5046663 155.64461371 15.5046663 150.840271 6.14717102 C146.95921771 3.29935476 144.20868561 2.76861534 139.43293762 2.75276184 C137.49196449 2.73573715 137.49196449 2.73573715 135.51177979 2.71836853 C134.08489928 2.72101165 132.65801935 2.72398284 131.23114014 2.72724915 C129.72290926 2.7199068 128.214684 2.71132009 126.70646667 2.70158386 C122.61553145 2.67937731 118.5247977 2.6764367 114.43381047 2.67833138 C111.01678062 2.67845111 107.59979342 2.66988593 104.18277544 2.66155386 C96.12074304 2.64232318 88.05881419 2.63943487 79.99676514 2.64619446 C71.68337747 2.65283655 63.37043335 2.62996356 55.05713564 2.59288073 C47.91557288 2.56218206 40.7741528 2.55082382 33.63252538 2.55471754 C29.36888005 2.55678474 25.10557993 2.55131047 20.84199715 2.52682495 C16.83218297 2.50455709 12.82308999 2.50643529 8.81327248 2.52675247 C7.34351796 2.53016243 5.87371489 2.52507386 4.40402603 2.51076889 C-6.15587337 2.18492497 -6.15587337 2.18492497 -14.159729 8.14717102 Z "
        fill="#D9D9D9" transform="translate(127.15972900390625,80.85282897949219)" />
    <path
        d="M0 0 C4.92959122 -0.04942899 9.85903825 -0.08573318 14.78881836 -0.10986328 C16.46592725 -0.11992237 18.14301861 -0.13357122 19.82006836 -0.15087891 C22.23035002 -0.17513152 24.64039986 -0.1864839 27.05078125 -0.1953125 C28.17592888 -0.21079636 28.17592888 -0.21079636 29.32380676 -0.22659302 C33.10300779 -0.227408 34.77414399 -0.15057067 38 2 C38.29873092 4.73153216 38.39985736 7.23731364 38.3742218 9.97167969 C38.37819621 10.80502209 38.38217061 11.63836449 38.38626546 12.49695969 C38.39593416 15.30543535 38.38404293 18.113413 38.37231445 20.921875 C38.37474091 22.92875355 38.37845881 24.93563089 38.38337708 26.94250488 C38.39280968 32.40522056 38.38334077 37.86775781 38.37004495 43.33045959 C38.35875888 49.03638753 38.36283575 54.74230631 38.36479187 60.44824219 C38.36567575 70.03193083 38.35457485 79.61554886 38.33618164 89.19921875 C38.3150126 100.29301695 38.31150359 111.38671166 38.3177436 122.48052597 C38.32343043 133.13469566 38.31779964 143.78882875 38.30657005 154.44299316 C38.30191503 158.98523635 38.30105411 163.52745722 38.3031559 168.06970215 C38.30503405 173.41467043 38.29697145 178.7595328 38.2810955 184.10447693 C38.27683851 186.070954 38.27601154 188.03744179 38.27878571 190.00392151 C38.28198784 192.67883892 38.27297575 195.35343588 38.26069641 198.02832031 C38.26447573 198.81488384 38.26825506 199.60144737 38.27214891 200.41184616 C38.22832885 205.77167115 38.22832885 205.77167115 36 208 C33.58867645 208.25447559 33.58867645 208.25447559 30.49597168 208.26069641 C29.32654526 208.26778122 28.15711884 208.27486603 26.95225525 208.28216553 C25.66283524 208.27968811 24.37341522 208.27721069 23.04492188 208.2746582 C21.67842835 208.27900356 20.31193727 208.28418612 18.94544983 208.29014587 C15.22858303 208.30356522 11.51181772 208.30411138 7.79493141 208.30158257 C4.69580686 208.30051499 1.59670304 208.3053907 -1.50241709 208.310188 C-8.81103462 208.32129303 -16.11960076 208.3217148 -23.42822266 208.31567383 C-30.97751206 208.30963008 -38.52661527 208.32195286 -46.0758729 208.3432439 C-52.54978836 208.36083334 -59.02364442 208.36686553 -65.49758291 208.36360615 C-69.36758578 208.36178911 -73.23745581 208.36447122 -77.10743713 208.37832069 C-80.74524702 208.39085164 -84.38276559 208.38900035 -88.02057076 208.37590981 C-89.99780656 208.37239813 -91.97505107 208.38375634 -93.95225525 208.39547729 C-95.12168167 208.38846298 -96.29110809 208.38144867 -97.49597168 208.3742218 C-99.02686054 208.37447341 -99.02686054 208.37447341 -100.58867645 208.37473011 C-101.38441322 208.25106917 -102.18014999 208.12740824 -103 208 C-105.52775351 204.20836973 -105.22443035 201.19125969 -105.125 196.8125 C-105.11146484 195.68811523 -105.11146484 195.68811523 -105.09765625 194.54101562 C-105.07412578 192.69387346 -105.03825561 190.84689588 -105 189 C-103.53540848 188.99786247 -103.53540848 188.99786247 -102.04122925 188.99568176 C-92.83056466 188.9789977 -83.62034108 188.93618119 -74.4099102 188.86790943 C-69.674902 188.83364782 -64.94021615 188.80853075 -60.20507812 188.80444336 C-55.63361473 188.80015862 -51.06287841 188.77168158 -46.491642 188.72656822 C-44.74942386 188.7135988 -43.00711868 188.70928359 -41.26485825 188.71384621 C-38.82014638 188.71875642 -36.37755617 188.69264476 -33.93310547 188.65942383 C-33.21596878 188.66804947 -32.49883209 188.67667511 -31.75996399 188.68556213 C-26.11954092 188.55743113 -23.7765355 186.92130009 -20 183 C-19.566875 181.80375 -19.13375 180.6075 -18.6875 179.375 C-17 176 -17 176 -14.99609375 175.09765625 C-13.40801326 174.65550534 -11.81676167 174.2245982 -10.22265625 173.8046875 C-6.51304774 172.46166579 -5.17767725 170.23352077 -3 167 C-2.45400146 166.19127441 -2.45400146 166.19127441 -1.89697266 165.36621094 C-0.49630647 161.6712581 -0.64034427 157.99892246 -0.5859375 154.078125 C-0.56657135 153.21813904 -0.5472052 152.35815308 -0.5272522 151.47210693 C-0.46758186 148.73150479 -0.4211214 145.99086036 -0.375 143.25 C-0.33680866 141.38930483 -0.29775625 139.52862712 -0.2578125 137.66796875 C-0.16189065 133.11212136 -0.07781332 128.55619121 0 124 C2.95205069 125.39909403 4.6763715 126.60005235 6.75 129.125 C8.53438655 130.98657376 9.52411748 131.89344566 12.05859375 132.4609375 C15.83995637 132.5303203 17.83072694 132.11284871 21 130 C22.22924672 126.31225984 22.43534775 123.88151167 22 120 C20.4332176 117.45315763 18.44086791 115.46095026 16.3125 113.375 C15.78205078 112.8284375 15.25160156 112.281875 14.70507812 111.71875 C13.15389237 110.12759504 11.58115204 108.56131771 10 107 C9.14792969 106.14664063 8.29585938 105.29328125 7.41796875 104.4140625 C5.05485233 101.96023946 5.05485233 101.96023946 2.38435364 99.94111633 C-0.96270087 95.81250197 -0.67206095 92.6929955 -0.56762695 87.52807617 C-0.56835709 86.58124969 -0.56908722 85.63442322 -0.56983948 84.65890503 C-0.56636229 81.53633896 -0.52749396 78.4152735 -0.48828125 75.29296875 C-0.47895362 73.12535924 -0.47183727 70.95773918 -0.46684265 68.79011536 C-0.44776913 63.09016725 -0.39866445 57.39085809 -0.34332275 51.69116211 C-0.29213841 45.87297204 -0.2693303 40.05467854 -0.24414062 34.23632812 C-0.19054673 22.82393831 -0.10522897 11.41202233 0 0 Z "
        fill="#FDFDFD" transform="translate(285,161)" />
    <path
        d="M0 0 C1.26447464 -0.0071553 2.52894928 -0.01431061 3.83174133 -0.02168274 C5.23074316 -0.02452281 6.62974526 -0.02723456 8.02874756 -0.02983093 C9.50402485 -0.03609836 10.97930058 -0.04274541 12.45457458 -0.04974365 C17.29667061 -0.07075254 22.13876683 -0.08114279 26.980896 -0.09111023 C28.6498491 -0.09515891 30.31880205 -0.09927587 31.98775482 -0.10346031 C39.82913828 -0.12250469 47.67051236 -0.13673753 55.51191449 -0.14507228 C64.55466587 -0.15484349 73.59717239 -0.18116303 82.6398375 -0.22157317 C89.63531647 -0.251759 96.63072533 -0.26654347 103.62626815 -0.26985329 C107.80165846 -0.27220088 111.97678696 -0.28112321 116.15210724 -0.30631447 C120.08218717 -0.32964372 124.01183379 -0.33380916 127.9419651 -0.32355309 C129.38024909 -0.3230588 130.81855476 -0.3293477 132.25677299 -0.34310913 C140.17639044 -0.4146163 146.14937525 -0.32699369 152.840271 4.14717102 C156.98787019 9.35825718 157.96583502 13.13077612 157.9513855 19.68017578 C157.95138451 20.34679712 157.95138353 21.01341845 157.95138252 21.70024043 C157.95034769 23.93868454 157.94232847 26.17705167 157.93450928 28.41548157 C157.93263039 30.0186864 157.93128532 31.62189194 157.93043518 33.22509766 C157.92814999 36.68072838 157.92342485 40.13634459 157.91724014 43.59197044 C157.90884013 49.05943614 157.91426717 54.52683151 157.92324829 59.99429321 C157.9247193 60.91701843 157.9261903 61.83974366 157.92770588 62.79043025 C157.93077671 64.67747696 157.93389674 66.5645236 157.93706489 68.45157015 C157.95824861 81.1811564 157.97196878 93.91051378 157.93988037 106.64009094 C157.91833948 115.22522695 157.92151476 123.80995981 157.95328891 132.39506942 C157.96913007 136.93727999 157.97239852 141.47871978 157.94552994 146.020895 C157.92045891 150.29683104 157.92809129 154.57147752 157.96040916 158.84735298 C157.9664868 160.4130138 157.96070267 161.97877452 157.94191551 163.54433441 C157.68269681 173.41553771 157.68269681 173.41553771 162.14468384 181.92312622 C163.9246429 183.63287357 163.9246429 183.63287357 165.840271 185.14717102 C166.53524248 185.75571773 167.23021397 186.36426443 167.94624519 186.99125195 C169.23934046 188.12178624 170.53759791 189.24643633 171.840271 190.36592102 C180.48780687 198.06763265 180.48780687 198.06763265 181.465271 203.83467102 C180.8147141 207.28262259 179.96391216 209.3701018 177.840271 212.14717102 C174.51071686 213.81194809 171.39239324 214.04141158 167.840271 213.14717102 C165.45104207 211.27588683 163.51441697 209.26518052 161.5043335 206.99482727 C159.96153873 205.05558559 159.96153873 205.05558559 157.840271 204.14717102 C157.86645508 205.28670227 157.89263916 206.42623352 157.9196167 207.60029602 C158.01060211 211.85676688 158.06769457 216.11315303 158.1149292 220.37031555 C158.13996389 222.20737701 158.17400245 224.04433995 158.21746826 225.88105774 C158.27861136 228.53251029 158.30659057 231.18263836 158.32855225 233.83467102 C158.35435867 234.64645813 158.3801651 235.45824524 158.40675354 236.29463196 C158.40971443 242.41159265 156.66255421 246.38514565 152.840271 251.14717102 C148.23992045 255.4189251 144.97730996 256.27035446 138.80079651 256.29434204 C136.90614655 256.305075 136.90614655 256.305075 134.97322083 256.31602478 C133.5705874 256.31886503 132.16795372 256.32157676 130.76531982 256.32417297 C129.29019002 256.33043857 127.8150618 256.33708546 126.3399353 256.34408569 C121.49240212 256.36511968 116.64486864 256.37548849 111.79730225 256.38545227 C110.1274228 256.38950028 108.45754352 256.39361722 106.78766441 256.39780235 C98.94093817 256.41685376 91.09422132 256.43108405 83.2474764 256.43941432 C74.19622493 256.4491824 65.1452183 256.47549081 56.09405309 256.51591522 C49.09434803 256.54610201 42.09471305 256.56088569 35.09494418 256.56419533 C30.91618562 256.5665432 26.73768862 256.57546894 22.55900002 256.60065651 C18.62482959 256.62398684 14.69109202 256.62815076 10.75687027 256.61789513 C9.31697459 256.61740083 7.87705725 256.62368995 6.43722725 256.63745117 C-1.48608374 256.70890977 -7.46602081 256.62458989 -14.159729 252.14717102 C-18.89932602 246.19229272 -19.30843629 241.44087696 -19.30690002 234.06385803 C-19.31057671 233.12293312 -19.3142534 232.18200821 -19.3180415 231.21257043 C-19.32909299 228.04590839 -19.33292466 224.87927916 -19.33673096 221.71260071 C-19.34299446 219.44768163 -19.34964116 217.18276359 -19.35664368 214.91784668 C-19.3740629 208.75453131 -19.38460779 202.59122371 -19.39284921 196.42788982 C-19.39799701 192.57894696 -19.40407282 188.73000652 -19.41036034 184.88106537 C-19.42723036 174.22320676 -19.44186554 163.56535157 -19.44910908 152.90748215 C-19.45101895 150.14216358 -19.45293928 147.37684502 -19.45489502 144.61152649 C-19.45537876 143.92422715 -19.4558625 143.23692782 -19.4563609 142.52880123 C-19.46466117 131.39507764 -19.48999852 120.26146149 -19.5224757 109.12778482 C-19.55555243 97.69531145 -19.57322562 86.26291824 -19.57675332 74.83039212 C-19.5791064 68.41213765 -19.58810078 61.99405301 -19.61321449 55.57584381 C-19.63645776 49.53807223 -19.64074336 43.50058278 -19.63045311 37.46277809 C-19.62995674 35.24682745 -19.6363067 33.03086309 -19.65000916 30.81495476 C-19.66767304 27.7891033 -19.66064855 24.76427037 -19.6474762 21.73841858 C-19.65844544 20.86204577 -19.66941469 19.98567297 -19.68071634 19.08274341 C-19.61973239 13.27813343 -18.49294909 9.92800645 -15.159729 5.14717102 C-10.25688592 0.48947009 -6.59790577 0.02564562 0 0 Z M-14.159729 8.14717102 C-16.82910871 12.15124058 -16.44326792 15.66330486 -16.42715454 20.31314087 C-16.43168565 21.26293845 -16.43621677 22.21273603 -16.44088519 23.19131535 C-16.45359006 26.38799382 -16.45190489 29.58450324 -16.45025635 32.78120422 C-16.45623783 35.06745118 -16.46304249 37.35369611 -16.47061157 39.63993835 C-16.48831828 45.8610503 -16.49296894 52.08210727 -16.49424314 58.30324197 C-16.4961395 63.49219827 -16.50349406 68.68114169 -16.51058733 73.87009305 C-16.52595523 85.41112169 -16.53192366 96.9521189 -16.53057663 108.49315629 C-16.53049672 109.18585371 -16.53041681 109.87855113 -16.53033447 110.59223938 C-16.53025271 111.28578225 -16.53017095 111.97932513 -16.53008671 112.69388445 C-16.52927395 123.9317542 -16.54840792 135.16948987 -16.57661121 146.40732083 C-16.6053383 157.94488617 -16.61878528 169.48236879 -16.61742365 181.0199725 C-16.61691314 187.49798814 -16.62264537 193.97585212 -16.64377975 200.45383644 C-16.66311366 206.54660945 -16.66331964 212.63908539 -16.64874649 218.73186874 C-16.64665122 220.96919754 -16.6514018 223.20654469 -16.66346741 225.44384193 C-16.67886401 228.49632942 -16.66964815 231.54778555 -16.65420532 234.60025024 C-16.66449245 235.48731779 -16.67477957 236.37438533 -16.68537843 237.28833371 C-16.6249143 242.69029455 -15.92926385 245.98088266 -12.159729 250.14717102 C-7.95682548 252.87835065 -4.70400303 253.52302394 0.26069641 253.52812195 C2.16803558 253.54081116 2.16803558 253.54081116 4.11390686 253.55375671 C5.51040779 253.5479247 6.90690744 253.54178025 8.30340576 253.53535461 C9.78384793 253.53942263 11.26428706 253.54476581 12.74472046 253.55128479 C16.75497961 253.56493569 20.76500665 253.55966933 24.77526975 253.55014753 C28.97564894 253.5425408 33.17600856 253.54959923 37.37638855 253.55430603 C44.42843181 253.55976003 51.48038074 253.55258069 58.53240967 253.5382843 C66.68271042 253.52195211 74.83278609 253.5272518 82.9830814 253.54376352 C89.98536529 253.55738098 96.98758145 253.55929697 103.9898743 253.55144751 C108.17009638 253.54677323 112.35021267 253.5461395 116.53042793 253.55605698 C120.45968405 253.56472841 124.3886501 253.5587017 128.31787491 253.54137421 C129.75901368 253.53741056 131.20017691 253.53854136 132.64130592 253.5451622 C134.60980477 253.55337154 136.57835702 253.54124697 138.54682922 253.52812195 C140.1985153 253.52642533 140.1985153 253.52642533 141.88356876 253.52469444 C146.49118914 252.93637527 149.02842879 251.04921792 152.090271 247.64717102 C159.42768875 237.16514565 157.4560915 213.85567764 155.49932861 201.68690491 C152.64056245 190.67040938 141.10728727 181.81013262 131.840271 176.14717102 C131.180271 176.14717102 130.520271 176.14717102 129.840271 176.14717102 C127.28637022 171.03936947 126.83228375 168.29655108 127.19573975 162.55732727 C127.07572743 159.97237966 127.07572743 159.97237966 124.82855225 158.33076477 C124.17241943 157.94017883 123.51628662 157.5495929 122.840271 157.14717102 C122.23441162 157.66666321 121.62855225 158.1861554 121.0043335 158.72138977 C115.26094144 163.50165916 109.74786646 167.28428853 102.840271 170.14717102 C101.94566162 170.54033508 101.05105225 170.93349915 100.1293335 171.33857727 C85.01435796 177.03148801 66.05545732 175.91583292 51.36761475 169.67060852 C35.26392485 162.32680784 23.60824618 150.64411053 16.840271 134.14717102 C16.448396 133.22033508 16.056521 132.29349915 15.652771 131.33857727 C10.16881796 116.39099696 11.3956722 98.19242061 17.28167725 83.56513977 C25.58691152 65.77922042 38.85733392 54.45891467 56.840271 47.14717102 C64.40707668 44.67478231 72.01999456 44.91321186 79.902771 45.02217102 C81.14993896 45.03119446 82.39710693 45.0402179 83.68206787 45.04951477 C86.73500604 45.07290893 89.78753405 45.10568928 92.840271 45.14717102 C92.840271 45.80717102 92.840271 46.46717102 92.840271 47.14717102 C91.84253662 46.98732727 90.84480225 46.82748352 89.8168335 46.66279602 C71.58602607 44.08063244 55.02797563 47.72515461 39.793396 58.25263977 C27.17568285 68.0993358 18.3197819 81.41586117 14.840271 97.14717102 C13.59569224 110.78416101 14.02927978 123.60280903 19.840271 136.14717102 C20.28628662 137.13717102 20.73230225 138.12717102 21.1918335 139.14717102 C29.02960821 154.91029335 43.42378781 165.63543331 59.93011475 171.18623352 C77.94139902 175.95065235 94.22926659 172.69981667 110.57855225 164.13154602 C115.62931883 161.05874431 119.73596148 157.37674671 123.840271 153.14717102 C124.48609131 152.51037415 125.13191162 151.87357727 125.79730225 151.21748352 C130.24716934 146.54463834 132.90590638 141.43910891 135.57855225 135.58857727 C136.840271 133.14717102 136.840271 133.14717102 138.840271 132.14717102 C136.47476713 139.32149525 133.16272803 144.80190546 128.449646 150.70185852 C126.47376197 153.21615208 126.47376197 153.21615208 126.840271 157.14717102 C129.55262723 158.88307901 130.74787832 159.15622913 134.027771 158.83467102 C141.79671465 159.47146968 147.37524516 166.43516464 152.527771 171.86201477 C153.65320238 173.26377515 153.65320238 173.26377515 154.840271 173.14717102 C154.93374308 152.40670098 155.00426432 131.66626571 155.04751968 110.92562771 C155.0681384 101.29522088 155.09624583 91.66494498 155.14202881 82.03462219 C155.18191768 73.64010167 155.20770883 65.24567598 155.21662498 56.85106331 C155.22183625 52.40679913 155.23407024 47.96280624 155.26319122 43.51862907 C155.29039276 39.3333705 155.29870647 35.14849432 155.29270172 30.96315575 C155.29379985 29.42930776 155.30172569 27.89544666 155.3170929 26.36167526 C155.64461371 15.5046663 155.64461371 15.5046663 150.840271 6.14717102 C146.95921771 3.29935476 144.20868561 2.76861534 139.43293762 2.75276184 C137.49196449 2.73573715 137.49196449 2.73573715 135.51177979 2.71836853 C134.08489928 2.72101165 132.65801935 2.72398284 131.23114014 2.72724915 C129.72290926 2.7199068 128.214684 2.71132009 126.70646667 2.70158386 C122.61553145 2.67937731 118.5247977 2.6764367 114.43381047 2.67833138 C111.01678062 2.67845111 107.59979342 2.66988593 104.18277544 2.66155386 C96.12074304 2.64232318 88.05881419 2.63943487 79.99676514 2.64619446 C71.68337747 2.65283655 63.37043335 2.62996356 55.05713564 2.59288073 C47.91557288 2.56218206 40.7741528 2.55082382 33.63252538 2.55471754 C29.36888005 2.55678474 25.10557993 2.55131047 20.84199715 2.52682495 C16.83218297 2.50455709 12.82308999 2.50643529 8.81327248 2.52675247 C7.34351796 2.53016243 5.87371489 2.52507386 4.40402603 2.51076889 C-6.15587337 2.18492497 -6.15587337 2.18492497 -14.159729 8.14717102 Z "
        fill="#838383" transform="translate(127.15972900390625,80.85282897949219)" />
    <path
        d="M0 0 C31.68 0 63.36 0 96 0 C85.30971243 12.47200217 72.54584791 20.59624486 56 23 C36.04395905 24.45723626 19.56302788 18.98370517 4.109375 6.11328125 C2 4 2 4 0 0 Z "
        fill="#DADADA" transform="translate(157,231)" />
    <path
        d="M0 0 C1.25920761 -0.00137466 2.51841522 -0.00274933 3.81578064 -0.00416565 C5.20858789 -0.00062674 6.60139489 0.00300807 7.99420166 0.00672913 C9.46275328 0.00701124 10.93130503 0.00685279 12.39985657 0.00628662 C16.38504215 0.00599959 20.37019766 0.01188121 24.35537624 0.01886058 C28.52072942 0.02510968 32.68608328 0.02569915 36.85144043 0.02688599 C44.73844979 0.0299947 52.62544529 0.03820191 60.51244855 0.04823548 C69.49181233 0.05941086 78.47117678 0.06491066 87.45054579 0.06993091 C105.92116029 0.0803849 124.39176189 0.09797547 142.86236572 0.12025452 C142.53236572 0.78025452 142.20236572 1.44025452 141.86236572 2.12025452 C141.11121963 2.12172108 140.36007353 2.12318764 139.58616543 2.12469864 C121.29926 2.16176913 103.01254556 2.22078706 84.72579098 2.30415726 C75.88239683 2.34394685 67.03909166 2.37633974 58.19561768 2.39125061 C50.4865863 2.40426756 42.77775071 2.43123325 35.0688296 2.47486758 C30.98792091 2.49748154 26.90725369 2.51316525 22.82627678 2.51213837 C18.98233778 2.5113917 15.13893255 2.52934438 11.29513168 2.56142235 C9.8871091 2.56991649 8.47902661 2.57167453 7.07098961 2.56605721 C-1.50820563 2.53639897 -7.35658816 2.60664512 -13.78805733 8.67835808 C-15.88527742 12.47302446 -15.55410302 16.13923836 -15.52531433 20.40647888 C-15.53069987 21.35713089 -15.53608541 22.30778289 -15.54163414 23.28724253 C-15.55597089 26.48089676 -15.54879581 29.67413983 -15.54168701 32.86781311 C-15.54738762 35.15420873 -15.55435067 37.44060149 -15.56248474 39.72698975 C-15.58046635 45.94394048 -15.57923823 52.16075045 -15.57354236 58.3777194 C-15.57045744 63.56424501 -15.57653525 68.75074331 -15.5825811 73.93726504 C-15.59744588 86.87177123 -15.59379903 99.80618908 -15.5817178 112.74069376 C-15.57178758 123.97203919 -15.58472131 135.20321983 -15.60865199 146.43453984 C-15.63304039 157.96762476 -15.64225157 169.50061419 -15.63599926 181.03372633 C-15.63262443 187.50836433 -15.63507966 193.98286619 -15.65225029 200.4574852 C-15.66769178 206.54618122 -15.66379465 212.63456218 -15.64494514 218.72324562 C-15.64125141 220.95895769 -15.64439044 223.19469294 -15.65483093 225.43038368 C-15.6679886 228.48064225 -15.65653901 231.52984984 -15.63883972 234.58006287 C-15.65324723 235.909641 -15.65324723 235.909641 -15.6679458 237.26607931 C-15.60312155 242.68958779 -14.78696861 245.84082662 -11.13763428 250.12025452 C-4.71699388 254.24848349 2.46936837 253.56214967 9.87579346 253.55262756 C11.29553577 253.56165347 12.71527031 253.57198272 14.13499451 253.58351135 C17.97332135 253.61101047 21.81150004 253.62035616 25.6499126 253.62636542 C29.66716516 253.63576763 33.68430787 253.66197248 37.70149231 253.68637085 C45.30150391 253.72998885 52.90149413 253.75856463 60.5015927 253.78169423 C69.15703462 253.80877115 77.81236577 253.85268109 86.4677285 253.89798295 C104.26588237 253.99076189 122.06406554 254.06247349 139.86236572 254.12025452 C139.86236572 254.78025452 139.86236572 255.44025452 139.86236572 256.12025452 C120.96454084 256.21377523 102.06676304 256.2842716 83.16875458 256.3275032 C74.39369461 256.34811165 65.6187786 256.37619931 56.84381104 256.42201233 C49.19383473 256.4619328 41.54396271 256.48769982 33.89388514 256.4966085 C29.84472905 256.50181446 25.79587123 256.51401423 21.74681091 256.54317474 C17.93170938 256.57042642 14.11702755 256.57868001 10.30183792 256.57268524 C8.90547526 256.57378114 7.50909784 256.58167715 6.11281967 256.59707642 C-1.71661872 256.67915358 -7.5156613 256.51674933 -14.13763428 252.12025452 C-18.87723129 246.16537622 -19.28634156 241.41396046 -19.2848053 234.03694153 C-19.28848199 233.09601662 -19.29215867 232.15509171 -19.29594678 231.18565392 C-19.30699827 228.01899189 -19.31082994 224.85236265 -19.31463623 221.6856842 C-19.32089973 219.42076513 -19.32754643 217.15584709 -19.33454895 214.89093018 C-19.35196817 208.72761481 -19.36251306 202.56430721 -19.37075448 196.40097332 C-19.37590229 192.55203046 -19.38197809 188.70309002 -19.38826561 184.85414886 C-19.40513563 174.19629026 -19.41977082 163.53843507 -19.42701435 152.88056564 C-19.42892422 150.11524708 -19.43084456 147.34992852 -19.43280029 144.58460999 C-19.43328403 143.89731065 -19.43376777 143.21001132 -19.43426617 142.50188473 C-19.44256644 131.36816114 -19.46790379 120.23454499 -19.50038097 109.10086831 C-19.5334577 97.66839495 -19.5511309 86.23600174 -19.55465859 74.80347562 C-19.55701168 68.38522114 -19.56600606 61.96713651 -19.59111977 55.54892731 C-19.61436304 49.51115573 -19.61864864 43.47366627 -19.60835838 37.43586159 C-19.60786202 35.21991094 -19.61421197 33.00394659 -19.62791443 30.78803825 C-19.64557831 27.7621868 -19.63855382 24.73735387 -19.62538147 21.71150208 C-19.63635072 20.83512927 -19.64731996 19.95875646 -19.65862161 19.0558269 C-19.59763767 13.25121693 -18.47085436 9.90108995 -15.13763428 5.12025452 C-10.23680578 0.46446744 -6.59573502 -0.00555197 0 0 Z "
        fill="#7F7F7F" transform="translate(127.13763427734375,80.87974548339844)" />
    <path
        d="M0 0 C5.03530963 -0.1238722 10.06972697 -0.21446514 15.10620117 -0.2746582 C16.81827245 -0.29975714 18.53023704 -0.33384429 20.24194336 -0.37719727 C22.70713645 -0.43805739 25.17090985 -0.46625432 27.63671875 -0.48828125 C28.39836838 -0.51408768 29.16001801 -0.5398941 29.94474792 -0.56648254 C33.67424378 -0.56843774 35.68874271 -0.23240086 38.70317841 2.01833344 C41.60841786 5.78983025 41.695607 8.7021653 41.62145996 13.27429199 C41.62784878 14.10399742 41.6342376 14.93370284 41.64082003 15.78855085 C41.65607383 18.56720778 41.63560666 21.34443972 41.61523438 24.12304688 C41.61873546 26.11565117 41.62439389 28.10825267 41.63204956 30.10084534 C41.64630894 35.51205475 41.62922448 40.92275671 41.60576439 46.33391762 C41.5856727 51.99437913 41.59153407 57.65481922 41.59387207 63.31530762 C41.59381848 72.82145569 41.57405064 82.32740511 41.54199219 91.83349609 C41.50509868 102.8267943 41.49631647 113.81983223 41.5032897 124.81318426 C41.50959305 135.38461163 41.49884349 145.95594966 41.47932434 156.52735901 C41.47114559 161.02805351 41.46844167 165.52870238 41.47001648 170.02940369 C41.47089486 175.32851862 41.45669146 180.62738587 41.43078995 185.92643547 C41.42362247 187.87229652 41.42154731 189.81818391 41.42490768 191.76405525 C41.42861718 194.41820899 41.41389346 197.07163782 41.39440918 199.72570801 C41.39973711 200.49759571 41.40506503 201.2694834 41.41055441 202.06476164 C41.35397487 206.52534019 40.84617259 209.49911879 38 213 C34.88034001 214.03988666 32.70021525 214.13331795 29.42713928 214.14717102 C28.26764267 214.15432632 27.10814606 214.16148163 25.91351318 214.16885376 C24.64018127 214.17154266 23.36684937 214.17423157 22.05493164 214.17700195 C20.70138881 214.18326785 19.3478477 214.18991476 17.99430847 214.19691467 C13.54960321 214.21793587 9.10489766 214.22831263 4.66015625 214.23828125 C3.13010579 214.242329 1.60005551 214.24644593 0.07000542 214.25063133 C-7.11569955 214.26967574 -14.30139427 214.28391048 -21.48711962 214.2922433 C-29.78509401 214.30202481 -38.0828023 214.32837104 -46.38068289 214.36874419 C-52.79349399 214.39887678 -59.20622867 214.41370929 -65.61910921 214.41702431 C-69.45010568 214.41937736 -73.2808176 214.42837089 -77.1117382 214.45348549 C-80.71431466 214.47672274 -84.31641832 214.48101741 -87.91905022 214.47072411 C-89.87206943 214.46999078 -91.82506441 214.48911088 -93.77798462 214.50878906 C-94.94030106 214.50184525 -96.10261749 214.49490143 -97.30015564 214.48774719 C-98.31023147 214.49013555 -99.32030729 214.4925239 -100.36099148 214.49498463 C-103.71491245 213.86590772 -104.87471589 212.60888836 -107 210 C-108.59412284 206.81175432 -108.10174735 203.37103338 -108.0625 199.875 C-108.05798828 199.12089844 -108.05347656 198.36679687 -108.04882812 197.58984375 C-108.03703499 195.72652873 -108.01909942 193.86325445 -108 192 C-107.34 192 -106.68 192 -106 192 C-105.92652344 193.57201172 -105.92652344 193.57201172 -105.8515625 195.17578125 C-105.77651857 196.55471354 -105.70097143 197.9336185 -105.625 199.3125 C-105.5940625 200.00279297 -105.563125 200.69308594 -105.53125 201.40429688 C-105.31875081 205.06990789 -105.08066139 206.87900792 -103 210 C-100.48289394 210.45110913 -100.48289394 210.45110913 -97.48924255 210.36749268 C-96.31837097 210.37306183 -95.14749939 210.37863098 -93.94114685 210.3843689 C-92.65015579 210.37515411 -91.35916473 210.36593933 -90.02905273 210.35644531 C-88.6609382 210.35723584 -87.29282389 210.35933202 -85.92471313 210.36264038 C-82.2037021 210.36778453 -78.48296654 210.3542196 -74.76199985 210.33711338 C-70.8747109 210.32210722 -66.98742598 210.32325214 -63.10011292 210.32244873 C-56.57230916 210.31875352 -50.04461039 210.30377262 -43.5168457 210.28125 C-35.12740225 210.2523638 -26.73804334 210.24202621 -18.34855556 210.2375679 C-11.14869371 210.23359319 -3.94885037 210.22109092 3.25099826 210.20722103 C5.57172081 210.2031156 7.8924427 210.20019327 10.21316719 210.19742584 C13.85336333 210.1925445 17.49350778 210.18236093 21.13367844 210.16798782 C23.11466902 210.16128103 25.09567422 210.15945801 27.07667542 210.15774536 C28.24472717 210.15203522 29.41277893 210.14632507 30.6162262 210.14044189 C32.14849775 210.1359799 32.14849775 210.1359799 33.71172428 210.13142776 C35.96519413 210.25660497 35.96519413 210.25660497 37 209 C37.09780783 206.36976027 37.12994389 203.7657945 37.12025452 201.13511658 C37.12110894 200.30121747 37.12196337 199.46731836 37.12284368 198.60814959 C37.12450104 195.79204911 37.11897295 192.97600717 37.11352539 190.15991211 C37.11324355 188.14993796 37.11340119 186.13996371 37.1139679 184.12998962 C37.11425599 178.6550079 37.10835743 173.18004787 37.10139394 167.70507121 C37.09516228 161.99019527 37.09455675 156.27531888 37.09336853 150.56044006 C37.09025466 139.73026574 37.08204052 128.90010146 37.07201904 118.06993157 C37.06085964 105.74366298 37.05534789 93.41739393 37.05032361 81.09112155 C37.03985795 55.72740879 37.02225743 30.36370496 37 5 C33.89008604 3.44504302 30.56655951 3.75923044 27.1484375 3.68359375 C26.37440582 3.66281265 25.60037415 3.64203156 24.80288696 3.62062073 C22.32701608 3.55516552 19.85103798 3.49625913 17.375 3.4375 C15.69790552 3.39431093 14.02082193 3.35069652 12.34375 3.30664062 C8.22927692 3.19948829 4.11469586 3.09820955 0 3 C0 2.01 0 1.02 0 0 Z "
        fill="#CCCCCC" transform="translate(285,158)" />
    <path
        d="M0 0 C0.76655914 -0.01504074 1.53311829 -0.03008148 2.32290649 -0.045578 C4.8499487 -0.08856877 7.3759419 -0.10134469 9.90332031 -0.11010742 C11.66823713 -0.1255111 13.4331501 -0.14136166 15.19805908 -0.15763855 C18.89677588 -0.18608176 22.59512489 -0.19750746 26.29394531 -0.19921875 C31.01692013 -0.20439322 35.73699366 -0.26931398 40.45920944 -0.34950733 C44.10548446 -0.40168903 47.75106819 -0.41278004 51.39768219 -0.41272545 C53.13758315 -0.41926137 54.87749669 -0.44041961 56.61702728 -0.47690773 C70.13387651 -0.73612633 70.13387651 -0.73612633 75.22619629 2.50015259 C77.5238156 4.75116392 79.38006468 6.97236795 81.23144531 9.59692383 C81.88957214 10.43656174 82.54769897 11.27619965 83.22576904 12.14128113 C93.93642963 25.97828915 97.20446703 42.51290793 96.23144531 59.59692383 C95.9409643 61.27159086 95.62641626 62.9437793 95.23144531 64.59692383 C93.74644531 64.10192383 93.74644531 64.10192383 92.23144531 63.59692383 C92.25464844 62.43676758 92.27785156 61.27661133 92.30175781 60.08129883 C92.54456876 43.06992722 90.8456635 28.54703917 80.23144531 14.59692383 C80.23144531 13.93692383 80.23144531 13.27692383 80.23144531 12.59692383 C67.52277165 12.65808885 54.81430413 12.73516184 42.10585403 12.83263874 C36.2050233 12.87739764 30.3042625 12.91664167 24.40332031 12.94335938 C18.71033251 12.96933715 13.01761302 13.0097005 7.32479095 13.06011009 C5.1510832 13.07681621 2.977329 13.0883071 0.80356598 13.09453773 C-2.23736307 13.10413801 -5.27759984 13.1321488 -8.31835938 13.16455078 C-9.22035065 13.16311569 -10.12234192 13.1616806 -11.05166626 13.16020203 C-15.9401774 13.20964837 -15.9401774 13.20964837 -20.35919189 15.12394714 C-20.82428162 15.61002945 -21.28937134 16.09611176 -21.76855469 16.59692383 C-20.36728876 13.50447488 -18.69746385 11.14149476 -16.45605469 8.59692383 C-15.88242188 7.93692383 -15.30878906 7.27692383 -14.71777344 6.59692383 C-9.98339845 1.73920841 -6.8179575 -0.00230171 0 0 Z "
        fill="#DCDCDC" transform="translate(174.7685546875,138.403076171875)" />
    <path
        d="M0 0 C1.50171501 -0.00856522 1.50171501 -0.00856522 3.0337677 -0.01730347 C4.13617294 -0.01842133 5.23857819 -0.01953918 6.37438965 -0.02069092 C8.11102119 -0.02813828 8.11102119 -0.02813828 9.88273621 -0.03573608 C13.72566311 -0.05038283 17.56854876 -0.05716301 21.41149902 -0.06268311 C23.40000175 -0.06697967 25.38850447 -0.07127673 27.37700701 -0.07565761 C32.91673506 -0.08747174 38.45645308 -0.09500736 43.99619246 -0.09845281 C51.16897949 -0.10293814 58.34157639 -0.12050848 65.51430559 -0.1494534 C71.05403808 -0.17103556 76.59371693 -0.18115517 82.13349104 -0.18249393 C85.44461389 -0.18354415 88.75551663 -0.19093134 92.06660461 -0.20731354 C95.75658801 -0.22427077 99.44610242 -0.22251926 103.1361084 -0.21600342 C104.23851364 -0.2252182 105.34091888 -0.23443298 106.47673035 -0.243927 C107.47787369 -0.23835785 108.47901703 -0.2327887 109.51049805 -0.22705078 C110.38360374 -0.22851734 111.25670944 -0.2299839 112.15627289 -0.2314949 C112.84893501 -0.10875576 113.54159714 0.01398338 114.25524902 0.14044189 C116.25524902 3.14044189 116.25524902 3.14044189 115.88024902 5.82794189 C115.67399902 6.59106689 115.46774902 7.35419189 115.25524902 8.14044189 C99.49608159 8.1637712 83.73691879 8.18142123 67.97773838 8.19225407 C60.660975 8.19741696 53.34422233 8.20445952 46.02746582 8.21588135 C39.65241884 8.2258284 33.27737962 8.23229537 26.90232509 8.23453039 C23.52476888 8.23583746 20.14723486 8.23892308 16.76968575 8.24617195 C13.00517559 8.25337802 9.24071217 8.25443302 5.47619629 8.25396729 C4.3483522 8.25756256 3.22050812 8.26115784 2.05848694 8.26486206 C0.52925598 8.26280006 0.52925598 8.26280006 -1.03086853 8.26069641 C-1.92224235 8.2616182 -2.81361616 8.26254 -3.7320013 8.26348972 C-5.74475098 8.14044189 -5.74475098 8.14044189 -6.74475098 7.14044189 C-6.78555881 5.14085826 -6.78729454 3.13998935 -6.74475098 1.14044189 C-4.30427489 -0.07979615 -2.72857007 0.00929621 0 0 Z "
        fill="#DDDDDD" transform="translate(142.7447509765625,267.85955810546875)" />
    <path
        d="M0 0 C1.50171501 -0.00856522 1.50171501 -0.00856522 3.0337677 -0.01730347 C4.13617294 -0.01842133 5.23857819 -0.01953918 6.37438965 -0.02069092 C8.11102119 -0.02813828 8.11102119 -0.02813828 9.88273621 -0.03573608 C13.72566311 -0.05038283 17.56854876 -0.05716301 21.41149902 -0.06268311 C23.40000175 -0.06697967 25.38850447 -0.07127673 27.37700701 -0.07565761 C32.91673506 -0.08747174 38.45645308 -0.09500736 43.99619246 -0.09845281 C51.16897949 -0.10293814 58.34157639 -0.12050848 65.51430559 -0.1494534 C71.05403808 -0.17103556 76.59371693 -0.18115517 82.13349104 -0.18249393 C85.44461389 -0.18354415 88.75551663 -0.19093134 92.06660461 -0.20731354 C95.75658801 -0.22427077 99.44610242 -0.22251926 103.1361084 -0.21600342 C104.23851364 -0.2252182 105.34091888 -0.23443298 106.47673035 -0.243927 C107.47787369 -0.23835785 108.47901703 -0.2327887 109.51049805 -0.22705078 C110.38360374 -0.22851734 111.25670944 -0.2299839 112.15627289 -0.2314949 C112.84893501 -0.10875576 113.54159714 0.01398338 114.25524902 0.14044189 C116.25524902 3.14044189 116.25524902 3.14044189 115.94274902 5.26544189 C115.25524902 7.14044189 115.25524902 7.14044189 114.25524902 8.14044189 C112.70136739 8.23849054 111.14303138 8.26676051 109.58605957 8.26742554 C108.07161758 8.27165527 108.07161758 8.27165527 106.52658081 8.27597046 C104.85119736 8.27293411 104.85119736 8.27293411 103.14196777 8.26983643 C101.38851547 8.2724649 101.38851547 8.2724649 99.59963989 8.27514648 C96.38484463 8.27880454 93.17009025 8.27793165 89.95529556 8.2747674 C86.59784099 8.27224331 83.24038924 8.27458147 79.88293457 8.27615356 C74.24368801 8.27797512 68.60445453 8.27556933 62.96520996 8.27081299 C56.43674643 8.26537039 49.90831412 8.26713306 43.37985134 8.27263939 C37.78410543 8.27717093 32.18836895 8.27782087 26.5926218 8.27520072 C23.24638418 8.27363817 19.90016125 8.27344359 16.55392456 8.27673721 C12.82543797 8.27926204 9.0970123 8.27542554 5.36853027 8.26983643 C4.25160797 8.27186066 3.13468567 8.27388489 1.98391724 8.27597046 C0.97428925 8.27315063 -0.03533875 8.27033081 -1.07556152 8.26742554 C-1.95826218 8.26704851 -2.84096283 8.26667149 -3.75041199 8.26628304 C-5.74475098 8.14044189 -5.74475098 8.14044189 -6.74475098 7.14044189 C-6.78555881 5.14085826 -6.78729454 3.13998935 -6.74475098 1.14044189 C-4.30427489 -0.07979615 -2.72857007 0.00929621 0 0 Z "
        fill="#DBDBDB" transform="translate(142.7447509765625,303.85955810546875)" />
    <path
        d="M0 0 C1.49748528 -0.00639748 1.49748528 -0.00639748 3.02522278 -0.01292419 C4.12965225 -0.01247101 5.23408173 -0.01201782 6.37197876 -0.0115509 C8.10598183 -0.01658882 8.10598183 -0.01658882 9.87501526 -0.02172852 C13.71857765 -0.03127256 17.56209664 -0.0331834 21.40567017 -0.03425598 C23.39352416 -0.03665565 25.38137816 -0.0390568 27.36923182 -0.0417164 C33.62454523 -0.04986892 39.87984424 -0.05229995 46.13516235 -0.05158997 C52.59317372 -0.0509893 59.05110152 -0.06153705 65.50909173 -0.07733363 C71.04797045 -0.09040048 76.58682183 -0.09577421 82.12571585 -0.09513456 C85.43627582 -0.09487927 88.74674469 -0.09866135 92.05729294 -0.10831261 C95.74949905 -0.11806775 99.44148819 -0.11525204 103.13369751 -0.10920715 C104.23407852 -0.11482666 105.33445953 -0.12044617 106.46818542 -0.12623596 C107.97413017 -0.11994423 107.97413017 -0.11994423 109.51049805 -0.11352539 C110.38398077 -0.11407016 111.25746349 -0.11461493 112.15741539 -0.1151762 C114.38223267 0.13371277 114.38223267 0.13371277 117.38223267 2.13371277 C116.50723267 7.00871277 116.50723267 7.00871277 115.38223267 8.13371277 C113.82602871 8.22959401 112.26546813 8.2555931 110.70631409 8.25396729 C109.69524094 8.25534195 108.68416779 8.25671661 107.64245605 8.25813293 C105.96471603 8.25274002 105.96471603 8.25274002 104.25308228 8.24723816 C103.08250778 8.24738419 101.91193329 8.24753021 100.70588684 8.24768066 C97.48702324 8.24710172 94.26820263 8.24207268 91.04934764 8.23510671 C87.68875867 8.22887233 84.32816893 8.2282693 80.96757507 8.2270813 C74.59980925 8.22396823 68.23206051 8.21575517 61.86430222 8.20573181 C54.61653538 8.19456992 47.36876774 8.18906003 40.12099445 8.18403637 C25.20806432 8.17357254 10.2951502 8.15597357 -4.61776733 8.13371277 C-4.99839954 5.80762707 -5.33046678 3.47316013 -5.61776733 1.13371277 C-4.00021075 -0.48384382 -2.236519 0.00429464 0 0 Z "
        fill="#DBDBDB" transform="translate(141.61776733398438,106.86628723144531)" />
    <path
        d="M0 0 C1.61841797 0.0009668 1.61841797 0.0009668 3.26953125 0.00195312 C11.20205357 0.04651786 11.20205357 0.04651786 14.625 1.1875 C14.625 1.8475 14.625 2.5075 14.625 3.1875 C13.99634033 3.17178955 13.36768066 3.1560791 12.7199707 3.13989258 C-9.04157545 2.66815688 -26.77478767 4.8540555 -43.91015625 19.75 C-55.09577253 30.81152862 -62.48824602 45.79255366 -62.80615234 61.57543945 C-62.82905493 72.80387494 -62.16538579 81.86099554 -57.375 92.1875 C-56.91738281 93.18910156 -56.45976562 94.19070312 -55.98828125 95.22265625 C-48.25180688 110.63201753 -34.48058282 120.78031286 -18.28515625 126.2265625 C-0.28012464 130.98932735 16.02424739 127.74916347 32.36328125 119.16796875 C44.61283895 111.73021335 52.23018556 100.71946236 58.625 88.1875 C59.285 88.1875 59.945 88.1875 60.625 88.1875 C60.15086787 93.62754233 58.19315631 96.93807063 55.1875 101.3125 C51.60366475 106.57271612 51.60366475 106.57271612 48.625 112.1875 C51.33735623 113.92340799 52.53260732 114.19655811 55.8125 113.875 C62.91444107 114.45712632 67.6899096 119.92731298 72.1875 125.125 C72.991875 126.135625 73.79625 127.14625 74.625 128.1875 C70.24522365 127.69831032 68.39987093 126.39625769 65.4375 123.1875 C62.8293457 120.28898878 62.8293457 120.28898878 59.625 118.1875 C57.2920134 118.14727609 54.95793334 118.14429753 52.625 118.1875 C51.965 120.4975 51.305 122.8075 50.625 125.1875 C49.125 124.0625 49.125 124.0625 47.625 122.1875 C47.625 120.1875 47.625 118.1875 47.625 116.1875 C46.14 115.1975 46.14 115.1975 44.625 114.1875 C44.01914063 114.70699219 43.41328125 115.22648437 42.7890625 115.76171875 C37.04567044 120.54198814 31.53259547 124.32461751 24.625 127.1875 C23.73039062 127.58066406 22.83578125 127.97382813 21.9140625 128.37890625 C6.79908696 134.07181698 -12.15981368 132.9561619 -26.84765625 126.7109375 C-45.49705739 118.20235132 -56.93368789 104.18633722 -64.25 85.25 C-69.5832162 69.4777763 -67.16831702 50.8157926 -60.25 36 C-52.94536804 22.3248714 -43.01519789 12.82745134 -29.3125 5.8125 C-28.664021 5.47839111 -28.01554199 5.14428223 -27.34741211 4.80004883 C-18.38224047 0.4283039 -9.87485473 -0.11454349 0 0 Z "
        fill="#737373" transform="translate(205.375,124.8125)" />
    <path
        d="M0 0 C4.07097766 0.59094837 4.76948627 1.00129544 7.64672852 3.63549805 C8.3450882 4.2724057 9.04344788 4.90931335 9.76296997 5.56552124 C13.02458434 8.64946159 16.23341105 11.77797537 19.40234375 14.95703125 C20.07672989 15.63046066 20.75111603 16.30389008 21.44593811 16.99772644 C22.85459068 18.4057044 24.26200499 19.81492224 25.66821289 21.2253418 C27.82779773 23.39033604 29.99273882 25.54987256 32.15820312 27.70898438 C33.5315712 29.08301237 34.90462951 30.45735006 36.27734375 31.83203125 C37.24908791 32.80073906 37.24908791 32.80073906 38.24046326 33.78901672 C39.13258263 34.68586433 39.13258263 34.68586433 40.04272461 35.60083008 C40.56708603 36.12598709 41.09144745 36.6511441 41.63169861 37.19221497 C43.79997722 39.58194907 43.88380503 40.72686048 44.0625 44.0625 C43.875 47.5625 43.875 47.5625 41.875 49.5625 C38.75 50.125 38.75 50.125 34.875 49.5625 C33.01121521 48.23628235 33.01121521 48.23628235 31.10327148 46.48950195 C30.4049118 45.8525943 29.70655212 45.21568665 28.98703003 44.55947876 C25.72541566 41.47553841 22.51658895 38.34702463 19.34765625 35.16796875 C18.33607704 34.15782463 18.33607704 34.15782463 17.30406189 33.12727356 C15.89540932 31.7192956 14.48799501 30.31007776 13.08178711 28.8996582 C10.92220227 26.73466396 8.75726118 24.57512744 6.59179688 22.41601562 C5.2184288 21.04198763 3.84537049 19.66764994 2.47265625 18.29296875 C1.82482681 17.64716354 1.17699738 17.00135834 0.50953674 16.33598328 C-0.38258263 15.43913567 -0.38258263 15.43913567 -1.29272461 14.52416992 C-1.81708603 13.99901291 -2.34144745 13.4738559 -2.88169861 12.93278503 C-5.04997722 10.54305093 -5.13380503 9.39813952 -5.3125 6.0625 C-5.06863541 1.51036098 -4.46541727 0.80377511 0 0 Z "
        fill="#F8F8F8" transform="translate(261.125,241.4375)" />
    <path
        d="M0 0 C1.76923828 0.01353516 1.76923828 0.01353516 3.57421875 0.02734375 C4.47785156 0.03894531 5.38148438 0.05054688 6.3125 0.0625 C5.77625 0.866875 5.24 1.67125 4.6875 2.5 C4.32269531 3.05300781 3.95789063 3.60601562 3.58203125 4.17578125 C2.70485291 5.47940322 1.80474975 6.76778596 0.88671875 8.04296875 C-9.63403638 22.96776091 -12.64105944 40.10399786 -10.6875 58.0625 C-8.51551836 69.51744069 -3.55693346 78.76166791 3.3125 88.0625 C4.33129003 89.71774761 5.33747085 91.38110298 6.3125 93.0625 C3.93554877 93.19858499 1.56649518 93.29703667 -0.8125 93.375 C-1.47765625 93.41689453 -2.1428125 93.45878906 -2.828125 93.50195312 C-7.37747095 93.6134567 -10.03774934 92.67831069 -13.43702126 89.65750313 C-15.71489929 86.75203784 -15.51218118 83.45733545 -15.44799805 79.93920898 C-15.46135948 78.73343201 -15.46135948 78.73343201 -15.47499084 77.5032959 C-15.49624921 74.85422866 -15.47398445 72.20760056 -15.44921875 69.55859375 C-15.45072138 67.71443941 -15.45415191 65.87028572 -15.45942688 64.02613831 C-15.46375648 60.16496952 -15.44693301 56.30463648 -15.41479492 52.44360352 C-15.37498552 47.49440856 -15.38432498 42.54677811 -15.40902996 37.59753323 C-15.42321062 33.79103261 -15.41312882 29.98489764 -15.39551735 26.17842293 C-15.38966777 24.35357601 -15.39096958 22.52869168 -15.39954185 20.70385551 C-15.40753249 18.15385605 -15.3832998 15.60615183 -15.3503418 13.05639648 C-15.35889191 12.30252151 -15.36744202 11.54864655 -15.37625122 10.77192688 C-15.2918408 6.9889071 -15.00386259 5.39004326 -12.33357239 2.62538147 C-8.05044 0.09558362 -4.90020515 -0.04851688 0 0 Z "
        fill="#DADADA" transform="translate(150.6875,143.9375)" />
    <path
        d="M0 0 C0.66178253 -0.00175232 1.32356506 -0.00350464 2.00540161 -0.00531006 C4.20284615 -0.00972764 6.40021083 -0.00679094 8.59765625 -0.00341797 C10.11840836 -0.00409104 11.63916037 -0.00506108 13.15991211 -0.00631714 C16.35108461 -0.00779398 19.54222917 -0.00563999 22.73339844 -0.00097656 C26.83280155 0.00472073 30.93213921 0.00144165 35.03153992 -0.00454903 C38.17297869 -0.008155 41.31440183 -0.00701589 44.45584106 -0.00442123 C45.96778369 -0.00375207 47.47972771 -0.00458003 48.9916687 -0.00690079 C51.10125512 -0.00942792 53.21073412 -0.00558591 55.3203125 0 C56.52308838 0.00079559 57.72586426 0.00159119 58.96508789 0.00241089 C61.66015625 0.12939453 61.66015625 0.12939453 62.66015625 1.12939453 C62.84765625 3.56689453 62.84765625 3.56689453 62.66015625 6.12939453 C59.89460695 8.89494383 58.27895838 8.38288054 54.40625 8.38818359 C53.09148682 8.39448792 51.77672363 8.40079224 50.42211914 8.4072876 C48.98063015 8.40370793 47.53914238 8.399606 46.09765625 8.39501953 C44.62556901 8.39636621 43.1534822 8.39830676 41.68139648 8.40081787 C38.59452077 8.40376902 35.50776072 8.39947185 32.42089844 8.39013672 C28.45943496 8.37874209 24.49824247 8.38530163 20.53678894 8.39728165 C17.49652048 8.40450054 14.45631652 8.40221221 11.41604614 8.39702606 C9.95516935 8.39568964 8.49428675 8.39733703 7.03341675 8.40198517 C4.9936331 8.40705059 2.95382899 8.39796432 0.9140625 8.38818359 C-0.82895142 8.38579681 -0.82895142 8.38579681 -2.60717773 8.38336182 C-5.33984375 8.12939453 -5.33984375 8.12939453 -7.33984375 6.12939453 C-7.52734375 3.56689453 -7.52734375 3.56689453 -7.33984375 1.12939453 C-5.49187174 -0.71857748 -2.47188298 0.00163506 0 0 Z "
        fill="#DDDDDD" transform="translate(143.33984375,285.87060546875)" />
    <path
        d="M0 0 C22.44 0 44.88 0 68 0 C59.4959194 8.5040806 45.721397 11.25446238 34.0625 11.375 C22.02592123 11.23664852 11.27925265 8.36250293 1 2 C0.67 1.34 0.34 0.68 0 0 Z "
        fill="#FDFDFD" transform="translate(171,243)" />
    <path
        d="M0 0 C5.66014162 0.11806197 11.32010083 0.24229672 16.97998047 0.37231445 C18.90637504 0.41569001 20.83280871 0.45736314 22.75927734 0.49731445 C25.52453408 0.55495362 28.2895935 0.61866616 31.0546875 0.68359375 C31.9193161 0.70030624 32.7839447 0.71701874 33.67477417 0.73423767 C39.77225659 0.88612829 39.77225659 0.88612829 42 2 C42 3.98 42 5.96 42 8 C35.73 8.33 29.46 8.66 23 9 C23 9.66 23 10.32 23 11 C17.25 10.125 17.25 10.125 15 9 C13.30536742 8.88097188 11.60628878 8.82285313 9.90771484 8.79467773 C8.84676605 8.77473251 7.78581726 8.75478729 6.69271851 8.73423767 C5.54373077 8.71752518 4.39474304 8.70081268 3.2109375 8.68359375 C2.03737701 8.66281265 0.86381653 8.64203156 -0.3453064 8.62062073 C-4.10514304 8.55508017 -7.86505122 8.49621924 -11.625 8.4375 C-14.16927832 8.39431908 -16.71354933 8.35070493 -19.2578125 8.30664062 C-25.50513207 8.19939418 -31.75252326 8.0976362 -38 8 C-35.4188036 6.2792024 -33.57337537 5.38948998 -30.6875 4.4375 C-29.57955078 4.06431641 -29.57955078 4.06431641 -28.44921875 3.68359375 C-22.99147336 2.16029958 -17.70316034 1.84298111 -12.0625 1.875 C-11.38509766 1.87113281 -10.70769531 1.86726563 -10.00976562 1.86328125 C-5.56296111 1.8718082 -1.3729921 2.28162059 3 3 C3 2.34 3 1.68 3 1 C2.01 0.67 1.02 0.34 0 0 Z "
        fill="#D5D5D5" transform="translate(217,125)" />
    <path
        d="M0 0 C1.99609375 1.19140625 1.99609375 1.19140625 4 3 C4.28515625 5.33984375 4.28515625 5.33984375 4.0625 7.9375 C3.70761529 12.21547383 4.33593651 13.68548984 7 17 C7 17.99 7 18.98 7 20 C-15.11 20 -37.22 20 -60 20 C-60.33 19.01 -60.66 18.02 -61 17 C-59.82981323 17.0314209 -59.82981323 17.0314209 -58.63598633 17.06347656 C-55.02829395 17.14771737 -51.42080953 17.19899916 -47.8125 17.25 C-46.58595703 17.28351563 -45.35941406 17.31703125 -44.09570312 17.3515625 C-26.78002816 17.53431369 -13.10263 10.93503442 0 0 Z "
        fill="#D9D9D9" transform="translate(250,238)" />
    <path
        d="M0 0 C0.9215538 0.00222061 1.8431076 0.00444122 2.79258728 0.00672913 C3.83359085 0.00680466 4.87459442 0.00688019 5.94714355 0.00695801 C7.07941879 0.01211929 8.21169403 0.01728058 9.37828064 0.02259827 C10.53106003 0.02401321 11.68383942 0.02542816 12.87155151 0.02688599 C16.57043503 0.03250446 20.26925903 0.0450601 23.96812439 0.05775452 C26.46877456 0.06276714 28.96942567 0.06733045 31.47007751 0.07142639 C37.61528027 0.0824799 43.76044808 0.099236 49.90562439 0.12025452 C49.90562439 0.45025452 49.90562439 0.78025452 49.90562439 1.12025452 C48.99683533 1.35808655 48.99683533 1.35808655 48.06968689 1.60072327 C47.23179626 1.83404358 46.39390564 2.06736389 45.53062439 2.30775452 C44.31246033 2.63839905 44.31246033 2.63839905 43.06968689 2.97572327 C40.01228097 3.96561614 40.01228097 3.96561614 37.86534119 5.35145569 C30.74354563 9.558139 24.65323055 9.67419644 16.49864197 9.18006897 C14.44779617 9.05652998 12.39813967 8.97296731 10.34507751 8.89564514 C0.36276516 8.42501503 0.36276516 8.42501503 -3.09437561 6.12025452 C-3.34437561 3.55775452 -3.34437561 3.55775452 -3.09437561 1.12025452 C-2.09437561 0.12025452 -2.09437561 0.12025452 0 0 Z "
        fill="#DBDBDB" transform="translate(139.09437561035156,125.87974548339844)" />
    <path
        d="M0 0 C1.32252525 -0.00855011 1.32252525 -0.00855011 2.67176819 -0.01727295 C4.54052525 -0.02673705 6.40929911 -0.03326251 8.27807617 -0.03710938 C11.14466273 -0.0468225 14.01053483 -0.07783528 16.87695312 -0.109375 C18.68879781 -0.11590392 20.50064764 -0.12115483 22.3125 -0.125 C23.17399155 -0.1373468 24.03548309 -0.1496936 24.92308044 -0.16241455 C27.33959961 -0.15332031 27.33959961 -0.15332031 31.22265625 0.203125 C33.22265625 3.203125 33.22265625 3.203125 33.03515625 5.328125 C32.76703125 5.946875 32.49890625 6.565625 32.22265625 7.203125 C28.42886503 8.46772207 24.85941566 8.36550801 20.90625 8.37109375 C20.09398453 8.37442215 19.28171906 8.37775055 18.44483948 8.38117981 C16.72926398 8.38623905 15.01367865 8.38858844 13.2980957 8.38842773 C10.66666624 8.39061958 8.03565246 8.40880022 5.40429688 8.42773438 C3.73828269 8.43066738 2.0722665 8.4326528 0.40625 8.43359375 C-0.3833461 8.44077927 -1.1729422 8.44796478 -1.98646545 8.45536804 C-7.54851235 8.4319564 -7.54851235 8.4319564 -9.77734375 6.203125 C-9.96484375 3.640625 -9.96484375 3.640625 -9.77734375 1.203125 C-7.65686992 -0.91734883 -2.93464153 0.01444313 0 0 Z "
        fill="#DBDBDB" transform="translate(145.77734375,249.796875)" />
    <path
        d="M0 0 C0.66 0 1.32 0 2 0 C2.04898438 1.04800781 2.09796875 2.09601563 2.1484375 3.17578125 C2.22348143 4.55471354 2.29902857 5.9336185 2.375 7.3125 C2.4059375 8.00279297 2.436875 8.69308594 2.46875 9.40429688 C2.68124919 13.06990789 2.91933861 14.87900792 5 18 C8.10237979 19.0341266 10.2700315 19.13722601 13.52384949 19.15821838 C15.2465229 19.17290161 15.2465229 19.17290161 17.0039978 19.18788147 C18.26491241 19.19363693 19.52582703 19.1993924 20.82495117 19.20532227 C22.16528118 19.2149018 23.50560818 19.22491193 24.84593201 19.23532104 C28.48611484 19.26236802 32.12631063 19.2833787 35.76653838 19.30332303 C39.57023849 19.32518385 43.37389865 19.35257207 47.17756653 19.37937927 C54.38105252 19.42930485 61.58456068 19.47424418 68.78809005 19.51740164 C76.98875544 19.56677516 85.18938075 19.62169286 93.39000738 19.67708123 C110.25996787 19.79089921 127.12996557 19.89773865 144 20 C143.67 20.66 143.34 21.32 143 22 C125.07615974 22.09340732 107.15238257 22.16396145 89.22835159 22.20724869 C80.90605792 22.2278812 72.58391541 22.25601484 64.26171875 22.30175781 C57.00877875 22.34160464 49.75594821 22.3674278 42.50290179 22.37635398 C38.66178257 22.38157244 34.82097651 22.39385159 30.97995758 22.42292023 C27.36513163 22.45005559 23.75074805 22.45844899 20.13582993 22.45243073 C18.17560945 22.45405714 16.21543724 22.47558984 14.25534058 22.49768066 C13.08868866 22.49218201 11.92203674 22.48668335 10.72003174 22.48101807 C9.70605946 22.48470524 8.69208717 22.48839241 7.64738846 22.49219131 C4.28561575 21.86718469 3.12833818 20.61509574 1 18 C-0.59412284 14.81175432 -0.10174735 11.37103338 -0.0625 7.875 C-0.05798828 7.12089844 -0.05347656 6.36679687 -0.04882812 5.58984375 C-0.03703499 3.72652873 -0.01909942 1.86325445 0 0 Z "
        fill="#C0C0C0" transform="translate(177,350)" />
    <path
        d="M0 0 C0.83729141 -0.0033284 1.67458282 -0.0066568 2.5372467 -0.01008606 C4.31185353 -0.01515881 6.08646992 -0.01749428 7.86108398 -0.01733398 C10.58267881 -0.01951922 13.30386768 -0.03766758 16.02539062 -0.05664062 C17.74609236 -0.05957467 19.46679602 -0.06155939 21.1875 -0.0625 C22.00524399 -0.06968552 22.82298798 -0.07687103 23.66551208 -0.08427429 C29.43133421 -0.06085329 29.43133421 -0.06085329 31.66015625 2.16796875 C31.10460069 6.72352431 31.10460069 6.72352431 29.66015625 8.16796875 C26.94461233 8.28137849 24.25545582 8.33214895 21.5390625 8.3359375 C20.31641945 8.3409301 20.31641945 8.3409301 19.06907654 8.34602356 C17.34154832 8.35109617 15.61401027 8.35343178 13.88647461 8.35327148 C11.2373038 8.35545667 8.58855009 8.37360496 5.93945312 8.39257812 C4.26432435 8.39551219 2.58919358 8.3974969 0.9140625 8.3984375 C0.11819229 8.40562302 -0.67767792 8.41280853 -1.49766541 8.42021179 C-7.11102148 8.39679102 -7.11102148 8.39679102 -9.33984375 6.16796875 C-9.52734375 3.60546875 -9.52734375 3.60546875 -9.33984375 1.16796875 C-7.26983055 -0.90204445 -2.8521845 0.0038718 0 0 Z "
        fill="#DDDDDD" transform="translate(225.33984375,285.83203125)" />
    <path
        d="M0 0 C1.64401779 0.00414807 1.64401779 0.00414807 3.32124805 0.00837994 C5.20799747 0.00219395 5.20799747 0.00219395 7.13286304 -0.00411701 C8.52930378 0.00650044 9.92574236 0.01740487 11.32217884 0.02856731 C12.7905828 0.0294134 14.25898803 0.0289388 15.72739124 0.0272398 C19.71686658 0.0263777 23.7060723 0.04403796 27.69548488 0.06496167 C31.8635009 0.08369286 36.03152285 0.0854761 40.19957447 0.0890379 C48.0937534 0.09836884 55.98780796 0.12299678 63.88193208 0.15308636 C72.86851204 0.18659776 81.85509788 0.20310817 90.84172475 0.21817267 C109.32917649 0.24954545 127.8165124 0.30232631 146.30386829 0.36914349 C145.97386829 1.02914349 145.64386829 1.68914349 145.30386829 2.36914349 C95.47386829 2.69914349 45.64386829 3.02914349 -5.69613171 3.36914349 C-2.69613171 0.36914349 -2.69613171 0.36914349 0 0 Z "
        fill="#646464" transform="translate(123.6961317062378,80.63085651397705)" />
    <path
        d="M0 0 C73.26 0.495 73.26 0.495 148 1 C148 1.66 148 2.32 148 3 C128.99850809 3.02333521 109.99701908 3.04098224 90.99551582 3.05181217 C82.17327521 3.0569738 73.3510435 3.06401398 64.52880859 3.07543945 C56.84153515 3.08539034 49.15426815 3.0918544 41.46698844 3.09408849 C37.39467248 3.09539491 33.32237493 3.09847643 29.25006485 3.10573006 C25.42031171 3.11249664 21.59058466 3.11461565 17.76082611 3.11310768 C16.35228967 3.11338372 14.94375239 3.11538508 13.5352211 3.11920547 C11.6178983 3.12415258 9.70056163 3.12239523 7.78323364 3.12025452 C6.70842302 3.12117631 5.6336124 3.1220981 4.52623177 3.12304783 C2 3 2 3 0 2 C0 1.34 0 0.68 0 0 Z "
        fill="#656565" transform="translate(119,334)" />
    <path
        d="M0 0 C5.03530963 -0.1238722 10.06972697 -0.21446514 15.10620117 -0.2746582 C16.81827245 -0.29975714 18.53023704 -0.33384429 20.24194336 -0.37719727 C22.70713645 -0.43805739 25.17090985 -0.46625432 27.63671875 -0.48828125 C28.77919319 -0.52699089 28.77919319 -0.52699089 29.94474792 -0.56648254 C33.69472419 -0.56844848 35.68831824 -0.23570125 38.70654297 2.04675293 C41.54093906 5.69655837 41.67820989 8.38594778 41.56762695 12.81958008 C41.56835709 13.59084229 41.56908722 14.36210449 41.56983948 15.15673828 C41.56636796 17.69506222 41.52753062 20.23152967 41.48828125 22.76953125 C41.4789515 24.5335744 41.47183615 26.29763053 41.46684265 28.06169128 C41.44778548 32.69640096 41.39869609 37.33032258 41.34332275 41.96472168 C41.29210241 46.69707581 41.26932268 51.42955773 41.24414062 56.16210938 C41.19057581 65.44175179 41.10527877 74.72081027 41 84 C40.34 84 39.68 84 39 84 C38.98969254 83.05452805 38.97938507 82.10905609 38.96876526 81.13493347 C38.87108486 72.23253628 38.76835583 63.33020981 38.66066074 54.42792797 C38.6054542 49.85098367 38.55203778 45.27403295 38.50268555 40.69702148 C38.4550086 36.28144544 38.4026645 31.86594732 38.34705925 27.45046425 C38.32665081 25.76435596 38.30793522 24.07822631 38.29092598 22.39208031 C38.26684855 20.03368779 38.23679855 17.6754424 38.20532227 15.31713867 C38.19668907 14.26733322 38.19668907 14.26733322 38.18788147 13.19631958 C38.14220346 10.19306117 37.95791708 7.87375125 37 5 C33.89008604 3.44504302 30.56655951 3.75923044 27.1484375 3.68359375 C26.37440582 3.66281265 25.60037415 3.64203156 24.80288696 3.62062073 C22.32701608 3.55516552 19.85103798 3.49625913 17.375 3.4375 C15.69790552 3.39431093 14.02082193 3.35069652 12.34375 3.30664062 C8.22927692 3.19948829 4.11469586 3.09820955 0 3 C0 2.01 0 1.02 0 0 Z "
        fill="#BDBDBD" transform="translate(285,158)" />
    <path
        d="M0 0 C3.76034094 1.88017047 4.55365272 6.49399432 5.94140625 10.2578125 C8.80175444 20.36930166 7.54489961 30.56059313 3 40 C2.01 40.99 1.02 41.98 0 43 C0 28.81 0 14.62 0 0 Z "
        fill="#C1C1C1" transform="translate(285,196)" />
    <path
        d="M0 0 C0 5.94 0 11.88 0 18 C-4 19 -4 19 -6.796875 17.48828125 C-7.77140625 16.77027344 -8.7459375 16.05226563 -9.75 15.3125 C-10.73484375 14.60738281 -11.7196875 13.90226562 -12.734375 13.17578125 C-13.48203125 12.45777344 -14.2296875 11.73976563 -15 11 C-15 9.68 -15 8.36 -15 7 C-12.734375 4.82421875 -12.734375 4.82421875 -9.75 2.6875 C-8.77546875 1.96949219 -7.8009375 1.25148438 -6.796875 0.51171875 C-4 -1 -4 -1 0 0 Z "
        fill="#9F9E9F" transform="translate(74,284)" />
    <path
        d="M0 0 C7.03258488 1.13831197 11.68614577 8.34205618 15.6875 13.75 C25.13061377 27.81787335 29.3957175 45.18832561 26.484375 61.97265625 C26.32453125 62.64167969 26.1646875 63.31070313 26 64 C24.515 63.505 24.515 63.505 23 63 C23.02320313 61.83984375 23.04640625 60.6796875 23.0703125 59.484375 C23.35811948 39.32057464 20.18120656 22.72074893 5.70703125 7.60546875 C4.31352658 6.23662788 2.90270396 4.88500116 1.46875 3.55859375 C0 2 0 2 0 0 Z "
        fill="#747474" transform="translate(244,139)" />
    <path
        d="M0 0 C4.80549747 -0.02468447 9.61095818 -0.04285255 14.41650391 -0.05493164 C16.05192711 -0.05996621 17.6873458 -0.06679427 19.32275391 -0.07543945 C21.67090975 -0.08754335 24.01900619 -0.093237 26.3671875 -0.09765625 C27.10057343 -0.10281754 27.83395935 -0.10797882 28.58956909 -0.11329651 C33.77225659 -0.11387171 33.77225659 -0.11387171 36 1 C36 2.98 36 4.96 36 7 C32.66880171 7.28723456 29.33579199 7.5228633 26 7.75 C25.06542969 7.83121094 24.13085938 7.91242188 23.16796875 7.99609375 C16.53160069 8.41376726 12.69225107 7.46368108 7 4 C7 3.01 7 2.02 7 1 C4.69 1 2.38 1 0 1 C0 0.67 0 0.34 0 0 Z "
        fill="#DADADA" transform="translate(223,126)" />
    <path
        d="M0 0 C3.88892861 3.16540701 7.49253837 6.40699052 11 10 C11.56976563 10.55945313 12.13953125 11.11890625 12.7265625 11.6953125 C21.83054124 20.6443299 21.83054124 20.6443299 22.4375 25.5 C21.97918775 29.16649798 21.22769177 31.08686461 19 34 C15.82975235 35.58512383 12.45332972 35.42372144 9 35 C7 33.5 7 33.5 6 32 C6.33 31.01 6.66 30.02 7 29 C7.99 29.66 8.98 30.32 10 31 C13.58357241 31.25015873 13.58357241 31.25015873 17 31 C18.32771855 29.86692461 18.32771855 29.86692461 18.5 26.9375 C17.64768484 20.22551809 12.78325309 16.71694532 8.0859375 12.1875 C7.58682861 11.70120117 7.08771973 11.21490234 6.57348633 10.71386719 C5.11521917 9.30107516 3.63799266 7.90793386 2.16015625 6.515625 C0 4 0 4 0 0 Z "
        fill="#737373" transform="translate(286,259)" />
    <path
        d="M0 0 C3.0512214 1.17354669 4.62477188 2.68879743 6.6875 5.125 C8.62995825 7.18230796 9.56214711 7.92833832 12.38671875 8.390625 C14.62024243 8.37659973 16.78318275 8.26601807 19 8 C18.125 12.75 18.125 12.75 17 15 C12.82660768 15.88283299 9.04119871 16.57157728 5 15 C3.3125 12.5625 3.3125 12.5625 2 10 C1.34 9.34 0.68 8.68 0 8 C-0.26991906 5.31160615 -0.08737357 2.70858064 0 0 Z "
        fill="#D8D8D8" transform="translate(285,285)" />
    <path
        d="M0 0 C5.03530963 -0.1238722 10.06972697 -0.21446514 15.10620117 -0.2746582 C16.81827245 -0.29975714 18.53023704 -0.33384429 20.24194336 -0.37719727 C22.70713645 -0.43805739 25.17090985 -0.46625432 27.63671875 -0.48828125 C28.77919319 -0.52699089 28.77919319 -0.52699089 29.94474792 -0.56648254 C33.97992468 -0.56859799 35.79492565 -0.15896119 39.02270508 2.34301758 C41 5 41 5 41 8 C40.01 8 39.02 8 38 8 C37.505 6.515 37.505 6.515 37 5 C33.89008604 3.44504302 30.56655951 3.75923044 27.1484375 3.68359375 C26.37440582 3.66281265 25.60037415 3.64203156 24.80288696 3.62062073 C22.32701608 3.55516552 19.85103798 3.49625913 17.375 3.4375 C15.69790552 3.39431093 14.02082193 3.35069652 12.34375 3.30664062 C8.22927692 3.19948829 4.11469586 3.09820955 0 3 C0 2.01 0 1.02 0 0 Z "
        fill="#C5C5C5" transform="translate(285,158)" />
    <path
        d="M0 0 C6.82145667 1.47129458 10.060357 4.09053551 14 10 C14.21289062 13.13061523 14.21289062 13.13061523 14.15625 17.12109375 C14.14410461 18.226558 14.14410461 18.226558 14.13171387 19.35435486 C14.09957512 21.90322087 14.0505793 24.45143559 14 27 C13.96606633 28.96370305 13.93221552 30.92740754 13.8984375 32.89111328 C13.78228258 39.28195963 13.64208113 45.67218649 13.5 52.0625 C13.4516559 54.29752244 13.40347772 56.53254847 13.35546875 58.76757812 C13.23888772 64.17842826 13.12027477 69.58923077 13 75 C12.67 75 12.34 75 12 75 C11.99413376 74.23658295 11.98826752 73.47316589 11.98222351 72.68661499 C11.9242189 65.47735517 11.85209829 58.26843791 11.76428509 51.05948448 C11.71963726 47.35364347 11.68036923 43.64791097 11.65356445 39.94189453 C11.62747511 36.36255267 11.58703397 32.78362964 11.53681374 29.20454788 C11.52018285 27.84192761 11.50864507 26.47923495 11.50238609 25.11652756 C11.49270469 23.20175349 11.46291462 21.28711355 11.43237305 19.37255859 C11.42126999 18.28445892 11.41016693 17.19635925 11.39872742 16.07528687 C10.93552491 12.50271942 9.83870355 10.08288767 8 7 C5.79761821 5.25912423 5.79761821 5.25912423 3.3125 4.125 C2.10013672 3.51011719 2.10013672 3.51011719 0.86328125 2.8828125 C0.24839844 2.59148437 -0.36648438 2.30015625 -1 2 C-0.67 1.34 -0.34 0.68 0 0 Z "
        fill="#6B6B6B" transform="translate(270,81)" />
    <path
        d="M0 0 C1.59134766 -0.03867187 1.59134766 -0.03867187 3.21484375 -0.078125 C6.0625 0.25 6.0625 0.25 7.94140625 1.515625 C9.0625 3.25 9.0625 3.25 9.0625 7.25 C5.77462957 8.34595681 2.89028573 8.60704545 -0.5625 8.875 C-1.73039062 8.97039062 -2.89828125 9.06578125 -4.1015625 9.1640625 C-5.50535156 9.20660156 -5.50535156 9.20660156 -6.9375 9.25 C-7.9375 8.25 -7.9375 8.25 -8 4.6875 C-7.979375 3.553125 -7.95875 2.41875 -7.9375 1.25 C-5.23187257 -0.10281371 -3.01856345 0.04390638 0 0 Z "
        fill="#F0F0F0" transform="translate(292.9375,312.75)" />
    <path
        d="M0 0 C2.0625 0.9375 2.0625 0.9375 4 3 C4.06105314 6.13036108 3.54076171 8.89062018 3 12 C-2.94 12 -8.88 12 -15 12 C-12.24637345 9.24637345 -9.5330477 7.13312909 -6.375 4.875 C-3.04896264 2.60621239 -3.04896264 2.60621239 0 0 Z "
        fill="#F9F9F9" transform="translate(250,238)" />
    <path
        d="M0 0 C3.31008096 1.79642585 4.77257655 3.24638004 6.1875 6.75 C3.2414573 6.12943668 1.000739 5.13243329 -1.625 3.6875 C-8.09221843 0.77511025 -14.86861311 0.82363802 -21.8125 1.75 C-24.31668189 2.82216084 -26.18955271 3.9476103 -28.296875 5.65625 C-29.8125 6.75 -29.8125 6.75 -32.8125 6.75 C-30.9609429 2.16519194 -28.28972484 0.77574732 -23.92578125 -1.2578125 C-16.00791906 -3.78119644 -7.54668068 -3.51668767 0 0 Z "
        fill="#787878" transform="translate(201.8125,198.25)" />
    <path
        d="M0 0 C1.51289503 0.00031716 3.0258126 0.01164445 4.53857422 0.03173828 C5.33480194 0.03456818 6.13102966 0.03739807 6.9513855 0.04031372 C9.49882935 0.05152438 12.04592383 0.07663016 14.59326172 0.10205078 C16.31851706 0.11207945 18.04377791 0.1212055 19.76904297 0.12939453 C24.00225086 0.15146656 28.23519702 0.18600212 32.46826172 0.22705078 C20.99372946 6.16387399 6.71307751 5.52373196 -5.53173828 2.22705078 C-3.53173828 0.22705078 -3.53173828 0.22705078 0 0 Z "
        fill="#D2D2D2" transform="translate(192.53173828125,249.77294921875)" />
    <path
        d="M0 0 C1.65 1.32 3.3 2.64 5 4 C5 4.99 5 5.98 5 7 C8.96 7 12.92 7 17 7 C16 11 16 11 15 12 C12.47403741 12.23653523 9.96892793 12.42173692 7.4375 12.5625 C6.72658203 12.60568359 6.01566406 12.64886719 5.28320312 12.69335938 C3.52238088 12.79971777 1.7612168 12.90038846 0 13 C0 8.71 0 4.42 0 0 Z "
        fill="#F1F1F1" transform="translate(285,293)" />
    <path
        d="M0 0 C11.22 0 22.44 0 34 0 C34 0.66 34 1.32 34 2 C29.41618278 4.29190861 23.16748788 3.50009336 18.125 3.6875 C16.83207031 3.74744141 15.53914062 3.80738281 14.20703125 3.86914062 C12.34498047 3.9397168 12.34498047 3.9397168 10.4453125 4.01171875 C9.30594238 4.05772217 8.16657227 4.10372559 6.99267578 4.15112305 C4.04631862 4.00233898 2.47116223 3.54608178 0 2 C0 1.34 0 0.68 0 0 Z "
        fill="#EFEFEF" transform="translate(203,350)" />
    <path
        d="M0 0 C0 3.96 0 7.92 0 12 C-4.92129494 11.01574101 -6.40538913 10.1837982 -10 7 C-7.88268985 1.88316713 -5.59548444 0 0 0 Z "
        fill="#9D9D9D" transform="translate(318,62)" />
    <path
        d="M0 0 C0.99 0.33 1.98 0.66 3 1 C3 2.32 3 3.64 3 5 C4.65 5.33 6.3 5.66 8 6 C8 6.99 8 7.98 8 9 C6.35 9 4.7 9 3 9 C3 10.65 3 12.3 3 14 C1.68 14 0.36 14 -1 14 C-1 12.35 -1 10.7 -1 9 C-2.65 9 -4.3 9 -6 9 C-6 8.01 -6 7.02 -6 6 C-4.02 6 -2.04 6 0 6 C0 4.02 0 2.04 0 0 Z "
        fill="#C8C8C8" transform="translate(342,319)" />
    <path
        d="M0 0 C0.9075 0.37125 1.815 0.7425 2.75 1.125 C5.88097015 2.30359299 5.88097015 2.30359299 8.375 1.125 C8.91125 0.75375 9.4475 0.3825 10 0 C9.835 0.5775 9.67 1.155 9.5 1.75 C8.74126854 5.16429157 8.89810487 7.69431461 10 11 C8.02 10.34 6.04 9.68 4 9 C3.34 9.66 2.68 10.32 2 11 C1.01 11 0.02 11 -1 11 C-0.505 10.1028125 -0.505 10.1028125 0 9.1875 C1.20787988 6.94613529 1.20787988 6.94613529 1 4 C0.34 3.67 -0.32 3.34 -1 3 C-0.67 2.01 -0.34 1.02 0 0 Z "
        fill="#A1A1A1" transform="translate(392,150)" />
    <path
        d="M0 0 C0.66 0 1.32 0 2 0 C2 1.98 2 3.96 2 6 C3.98 6 5.96 6 8 6 C8 6.99 8 7.98 8 9 C6.35 9 4.7 9 3 9 C3 10.65 3 12.3 3 14 C2.01 14 1.02 14 0 14 C0 12.35 0 10.7 0 9 C-1.65 9 -3.3 9 -5 9 C-5.33 8.01 -5.66 7.02 -6 6 C-4.02 6 -2.04 6 0 6 C0 4.02 0 2.04 0 0 Z "
        fill="#ABABAB" transform="translate(13,192)" />
    <path
        d="M0 0 C0 4.29 0 8.58 0 13 C-7.03125 8.5078125 -7.03125 8.5078125 -9 7 C-9 6.34 -9 5.68 -9 5 C-7.5390625 3.7109375 -7.5390625 3.7109375 -5.625 2.375 C-4.99851562 1.92898438 -4.37203125 1.48296875 -3.7265625 1.0234375 C-2 0 -2 0 0 0 Z "
        fill="#F9F9F9" transform="translate(71,287)" />
    <path
        d="M0 0 C1.45599609 0.01401855 1.45599609 0.01401855 2.94140625 0.02832031 C4.00101563 0.03347656 5.060625 0.03863281 6.15234375 0.04394531 C7.25835937 0.06457031 8.364375 0.08519531 9.50390625 0.10644531 C11.16292969 0.11417969 11.16292969 0.11417969 12.85546875 0.12207031 C21.03973802 0.20172257 21.03973802 0.20172257 24.50390625 1.35644531 C24.50390625 2.01644531 24.50390625 2.67644531 24.50390625 3.35644531 C14.60390625 3.35644531 4.70390625 3.35644531 -5.49609375 3.35644531 C-2.49609375 0.35644531 -2.49609375 0.35644531 0 0 Z "
        fill="#696969" transform="translate(195.49609375,124.6435546875)" />
    <path
        d="M0 0 C3.77316142 -0.56196021 5.91317076 -0.63179001 9.2578125 1.3125 C14.1743262 5.04571718 18.16332027 9.17955623 22 14 C17.66045947 13.51198939 15.96558625 12.32151285 13.125 9.0625 C9.53761081 5.25004647 7.13027651 3.85504608 2 3 C2 2.34 2 1.68 2 1 C1.34 0.67 0.68 0.34 0 0 Z "
        fill="#727272" transform="translate(258,239)" />
    <path
        d="M0 0 C0 5.94 0 11.88 0 18 C-0.33 18 -0.66 18 -1 18 C-1.06058594 17.08476562 -1.12117188 16.16953125 -1.18359375 15.2265625 C-1.30927734 13.44378906 -1.30927734 13.44378906 -1.4375 11.625 C-1.51871094 10.44164062 -1.59992188 9.25828125 -1.68359375 8.0390625 C-1.81084936 5.08481099 -1.81084936 5.08481099 -3 3 C-3.51949219 3.33773438 -4.03898437 3.67546875 -4.57421875 4.0234375 C-8.28848007 6.39891701 -11.80400915 8.55762815 -16 10 C-14.50807246 6.21989145 -12.41440807 4.50570301 -9.125 2.1875 C-7.82949219 1.24970703 -7.82949219 1.24970703 -6.5078125 0.29296875 C-4 -1 -4 -1 0 0 Z "
        fill="#A7A7A7" transform="translate(74,284)" />
    <path
        d="M0 0 C13.86 0.99 13.86 0.99 28 2 C28 2.66 28 3.32 28 4 C24.64590806 4.05859857 21.29194983 4.09379582 17.9375 4.125 C16.99455078 4.14175781 16.05160156 4.15851563 15.08007812 4.17578125 C9.63476062 4.21372771 5.14500612 3.81252643 0 2 C0 1.34 0 0.68 0 0 Z "
        fill="#696969" transform="translate(187,252)" />
    <path
        d="M0 0 C6.82145667 1.47129458 10.060357 4.09053551 14 10 C13.625 12.6875 13.625 12.6875 13 15 C11 13 11 13 9.9375 10.1875 C7.23442294 5.74050225 3.60800528 4.18324778 -1 2 C-0.67 1.34 -0.34 0.68 0 0 Z "
        fill="#747474" transform="translate(270,81)" />
    <path
        d="M0 0 C0 0.33 0 0.66 0 1 C-1.16015625 1.02126953 -1.16015625 1.02126953 -2.34375 1.04296875 C-8.79356205 1.33831905 -13.18431619 1.99798627 -18.37890625 5.94140625 C-20 7 -20 7 -23 7 C-21.15254103 2.34640065 -18.26121895 0.94088107 -13.88671875 -1.16015625 C-9.02258656 -2.5752962 -4.75676517 -1.41979493 0 0 Z "
        fill="#858585" transform="translate(192,198)" />
    <path
        d="M0 0 C0.804375 0.4640625 0.804375 0.4640625 1.625 0.9375 C4.49889531 2.22319001 6.85239323 2.80327458 10 3 C12.24755753 1.6483633 12.24755753 1.6483633 14 0 C14.66 0 15.32 0 16 0 C15.69108003 2.98622637 15.16753715 3.86118351 12.8125 5.8125 C9.31285865 7.29012635 7.61351108 7.076365 4 6 C1.625 4.625 1.625 4.625 0 3 C0 2.01 0 1.02 0 0 Z "
        fill="#797979" transform="translate(165,175)" />
    <path
        d="M0 0 C0.98320351 3.05885536 1.34808088 5.03422206 0 8 C-4.50469221 12.72443329 -7.53669677 13.66569121 -14 14 C-14 13.34 -14 12.68 -14 12 C-13.39671875 11.76925781 -12.7934375 11.53851563 -12.171875 11.30078125 C-7.23382078 9.28573654 -3.89247454 7.70027113 -1 3 C-0.67 2.01 -0.34 1.02 0 0 Z "
        fill="#777777" transform="translate(281,323)" />
    <path
        d="M0 0 C0.66 0 1.32 0 2 0 C3.2890625 1.64453125 3.2890625 1.64453125 4.625 3.8125 C5.07101563 4.52019531 5.51703125 5.22789062 5.9765625 5.95703125 C7 8 7 8 7 11 C5.00045254 11.04254356 2.99958364 11.04080783 1 11 C0 10 0 10 -0.09765625 7.71484375 C-0.08605469 6.79832031 -0.07445312 5.88179687 -0.0625 4.9375 C-0.05347656 4.01839844 -0.04445312 3.09929687 -0.03515625 2.15234375 C-0.02355469 1.44207031 -0.01195312 0.73179687 0 0 Z "
        fill="#F5F5F5" transform="translate(143,218)" />
    <path
        d="M0 0 C3.875 1.875 3.875 1.875 5 3 C9.07279689 2.61577388 12.46574118 2.12055529 16 0 C15.6875 1.875 15.6875 1.875 15 4 C11.30628421 6.46247719 8.28710603 6.56931388 4 6 C1.5 4.6875 1.5 4.6875 0 3 C0 2.01 0 1.02 0 0 Z "
        fill="#6F6F6F" transform="translate(194,175)" />
    <path
        d="M0 0 C3.79594117 0.56426152 5.58710633 2.18251862 8.25 4.875 C8.95640625 5.57367188 9.6628125 6.27234375 10.390625 6.9921875 C12 9 12 9 12 12 C8.60140297 10.53033642 6.35036291 8.61962486 3.75 6 C3.04359375 5.29875 2.3371875 4.5975 1.609375 3.875 C0 2 0 2 0 0 Z "
        fill="#747474" transform="translate(244,139)" />
    <path
        d="M0 0 C0.66 0.33 1.32 0.66 2 1 C1 4 1 4 -1.4375 6.3125 C-4.16491051 9.17295492 -5.03252833 11.21806528 -6 15 C-6.99 14.34 -7.98 13.68 -9 13 C-7.36088911 7.1265193 -5.109884 3.40658933 0 0 Z "
        fill="#777777" transform="translate(117,82)" />
    <path
        d="M0 0 C1.98 0 3.96 0 6 0 C4.8905928 3.48670834 3.73662334 6.77484237 2 10 C1.34 10 0.68 10 0 10 C-1.125 2.25 -1.125 2.25 0 0 Z "
        fill="#F7F7F7" transform="translate(144,152)" />
    <path
        d="M0 0 C1.32418738 1.98628107 2.59664267 4.00812037 3.8125 6.0625 C6.10816781 9.14525391 7.36848269 9.99124519 11 11 C10.01 11.495 10.01 11.495 9 12 C8.67 12.66 8.34 13.32 8 14 C3.84548415 11.50729049 0.88965729 9.55740876 -1 5 C-0.6875 2.1875 -0.6875 2.1875 0 0 Z "
        fill="#737373" transform="translate(110,322)" />
    <path
        d="M0 0 C0.66 0 1.32 0 2 0 C2 6.6 2 13.2 2 20 C1.01 19.67 0.02 19.34 -1 19 C-0.67 12.73 -0.34 6.46 0 0 Z "
        fill="#6E6E6E" transform="translate(268,183)" />
    <path
        d="M0 0 C0.66 0 1.32 0 2 0 C1.57202798 5.70629354 -0.84345952 9.41078616 -4 14 C-4.66 13.01 -5.32 12.02 -6 11 C-4.02 7.37 -2.04 3.74 0 0 Z "
        fill="#797979" transform="translate(264,213)" />
    <path
        d="M0 0 C10.11764706 8.23529412 10.11764706 8.23529412 12 12 C11.01 12.33 10.02 12.66 9 13 C7.48807379 11.59606852 5.99078112 10.17636465 4.5 8.75 C3.6646875 7.96109375 2.829375 7.1721875 1.96875 6.359375 C0 4 0 4 0 0 Z "
        fill="#757575" transform="translate(286,259)" />
    <path
        d="M0 0 C0.99 0.33 1.98 0.66 3 1 C3.97299156 5.85729645 4.12038805 10.4500625 4.0625 15.375 C4.05798828 16.11105469 4.05347656 16.84710938 4.04882812 17.60546875 C4.03715142 19.40368158 4.01922011 21.20185197 4 23 C3.67 23 3.34 23 3 23 C3 18.05 3 13.1 3 8 C2.01 8.33 1.02 8.66 0 9 C0 6.03 0 3.06 0 0 Z "
        fill="#898989" transform="translate(267,175)" />
    <path
        d="M0 0 C5.34844008 0.53484401 9.35796103 2.46690767 14 5 C14 5.66 14 6.32 14 7 C8.65155992 6.46515599 4.64203897 4.53309233 0 2 C0 1.34 0 0.68 0 0 Z "
        fill="#727272" transform="translate(226,129)" />
    <path
        d="M0 0 C7.26 0.33 14.52 0.66 22 1 C22 1.33 22 1.66 22 2 C14.97195301 2.85373239 8.07721931 3.12109311 1 3 C0.67 2.01 0.34 1.02 0 0 Z "
        fill="#C8C8C8" transform="translate(189,255)" />
    <path
        d="M0 0 C2 2 2 2 2.4375 4.4375 C2 7 2 7 -0.5 8.8125 C-1.325 9.204375 -2.15 9.59625 -3 10 C-3.66 8.68 -4.32 7.36 -5 6 C-3.35 4.02 -1.7 2.04 0 0 Z "
        fill="#DCDCDC" transform="translate(258,229)" />
    <path
        d="M0 0 C3.26535828 1.08845276 3.74013142 1.61239684 5.625 4.3125 C6.05039063 4.90675781 6.47578125 5.50101563 6.9140625 6.11328125 C8.04226649 8.07343422 8.5611774 9.79125956 9 12 C4.58848955 10.52949652 2.14860084 6.95377777 0 3 C0 2.01 0 1.02 0 0 Z "
        fill="#6C6C6C" transform="translate(148,222)" />
    <path
        d="M0 0 C4.3177458 0.50797009 8.03302114 1.19682779 12 3 C12 3.99 12 4.98 12 6 C10.37433394 5.52309796 8.74948689 5.04340334 7.125 4.5625 C6.22007812 4.29566406 5.31515625 4.02882812 4.3828125 3.75390625 C2 3 2 3 0 2 C0 1.34 0 0.68 0 0 Z "
        fill="#727272" transform="translate(175,248)" />
    <path
        d="M0 0 C1.98 0.495 1.98 0.495 4 1 C4 6.94 4 12.88 4 19 C3.67 19 3.34 19 3 19 C2.96261719 18.10796875 2.92523438 17.2159375 2.88671875 16.296875 C2.82097656 15.12640625 2.75523438 13.9559375 2.6875 12.75 C2.62949219 11.58984375 2.57148437 10.4296875 2.51171875 9.234375 C1.98288197 5.89180362 1.26227667 4.4502943 -1 2 C-0.67 1.34 -0.34 0.68 0 0 Z "
        fill="#AEAEAE" transform="translate(70,283)" />
    <path
        d="M0 0 C7.48291572 6.15034169 7.48291572 6.15034169 10 10 C6.91082652 9.6567585 5.22894021 9.17806461 2.75 7.25 C0.82193539 4.77105979 0.3432415 3.08917348 0 0 Z "
        fill="#7E7E7E" transform="translate(270,243)" />
    <path
        d="M0 0 C0 1.98 0 3.96 0 6 C-0.66 6 -1.32 6 -2 6 C-2.33 6.66 -2.66 7.32 -3 8 C-4.32 6.68 -5.64 5.36 -7 4 C-6.34 4 -5.68 4 -5 4 C-5 3.34 -5 2.68 -5 2 C-2 0 -2 0 0 0 Z "
        fill="#C6C6C6" transform="translate(316,65)" />
    <path
        d="M0 0 C0.99 0.33 1.98 0.66 3 1 C3 2.32 3 3.64 3 5 C4.65 5.33 6.3 5.66 8 6 C8 6.66 8 7.32 8 8 C6.35 8 4.7 8 3 8 C3 7.34 3 6.68 3 6 C2.01 6 1.02 6 0 6 C0 4.02 0 2.04 0 0 Z "
        fill="#B4B4B4" transform="translate(342,319)" />
    <path
        d="M0 0 C3.96 0 7.92 0 12 0 C12 0.99 12 1.98 12 3 C7.71 2.67 3.42 2.34 -1 2 C-0.67 1.34 -0.34 0.68 0 0 Z "
        fill="#6D6D6D" transform="translate(184,196)" />
    <path
        d="M0 0 C2.875 -0.1875 2.875 -0.1875 6 0 C8.1519437 3.22791555 8.20086443 4.28400809 8 8 C7.34 8 6.68 8 6 8 C6 6.35 6 4.7 6 3 C4.35 3 2.7 3 1 3 C0.67 2.01 0.34 1.02 0 0 Z "
        fill="#9F9F9F" transform="translate(7,198)" />
    <path d="M0 0 C2.64 0 5.28 0 8 0 C8 0.99 8 1.98 8 3 C5.36 3 2.72 3 0 3 C0 2.01 0 1.02 0 0 Z "
        fill="#A8A8A8" transform="translate(174,23)" />
    <path d="M0 0 C2.64 0 5.28 0 8 0 C8 0.99 8 1.98 8 3 C5.36 3 2.72 3 0 3 C0 2.01 0 1.02 0 0 Z "
        fill="#AAAAAA" transform="translate(155,23)" />
    <path d="M0 0 C0.99 0 1.98 0 3 0 C3 2.64 3 5.28 3 8 C2.01 8 1.02 8 0 8 C0 5.36 0 2.72 0 0 Z "
        fill="#A6A6A6" transform="translate(167,11)" />
    <path
        d="M0 0 C1.52519276 0.08937803 3.04681929 0.24537146 4.5625 0.4375 C5.80193359 0.59025391 5.80193359 0.59025391 7.06640625 0.74609375 C7.70449219 0.82988281 8.34257812 0.91367188 9 1 C9 1.66 9 2.32 9 3 C2.375 3.25 2.375 3.25 -1 1 C-0.67 0.67 -0.34 0.34 0 0 Z "
        fill="#6F6F6F" transform="translate(211,125)" />
    <path
        d="M0 0 C0.33 0 0.66 0 1 0 C1 3.96 1 7.92 1 12 C-0.32 12.33 -1.64 12.66 -3 13 C-3.66 12.01 -4.32 11.02 -5 10 C-3.68 10 -2.36 10 -1 10 C-0.67 6.7 -0.34 3.4 0 0 Z "
        fill="#727272" transform="translate(282,243)" />
    <path d="M0 0 C2.97 0.495 2.97 0.495 6 1 C6 2.98 6 4.96 6 7 C1.125 2.25 1.125 2.25 0 0 Z "
        fill="#D3D3D3" transform="translate(253,145)" />
    <path d="M0 0 C0.99 0 1.98 0 3 0 C3 2.31 3 4.62 3 7 C2.01 7 1.02 7 0 7 C0 4.69 0 2.38 0 0 Z "
        fill="#A4A4A4" transform="translate(167,30)" />
    <path
        d="M0 0 C2.97 0.99 5.94 1.98 9 3 C7.68 3.99 6.36 4.98 5 6 C3.0625 5.25 3.0625 5.25 1 4 C0.67 2.68 0.34 1.36 0 0 Z "
        fill="#7B7B7B" transform="translate(292,288)" />
    <path
        d="M0 0 C0.66 0.33 1.32 0.66 2 1 C0.1875 3.5 0.1875 3.5 -2 6 C-2.99 6 -3.98 6 -5 6 C-3.63016497 2.83884224 -3.0109362 2.0072908 0 0 Z "
        fill="#747474" transform="translate(174,199)" />
    <path
        d="M0 0 C-0.1875 1.875 -0.1875 1.875 -1 4 C-3.5625 5.25 -3.5625 5.25 -6 6 C-6 5.01 -6 4.02 -6 3 C-2.66666667 0 -2.66666667 0 0 0 Z "
        fill="#767676" transform="translate(210,175)" />
    <path
        d="M0 0 C2 1 4 2 6 3 C6 3.99 6 4.98 6 6 C3.5625 5.25 3.5625 5.25 1 4 C0.1875 1.875 0.1875 1.875 0 0 Z "
        fill="#737373" transform="translate(165,175)" />
    <path
        d="M0 0 C-0.3125 1.875 -0.3125 1.875 -1 4 C-1.99 4.66 -2.98 5.32 -4 6 C-4.99 5.34 -5.98 4.68 -7 4 C-5.53303752 1.06607504 -3.25996861 0 0 0 Z "
        fill="#A9A9A9" transform="translate(402,150)" />
    <path
        d="M0 0 C1.32 0.33 2.64 0.66 4 1 C4 1.66 4 2.32 4 3 C4.66 3 5.32 3 6 3 C6 3.99 6 4.98 6 6 C3.37812506 4.95125002 2.20628639 4.35068687 0.75 1.875 C0.5025 1.25625 0.255 0.6375 0 0 Z "
        fill="#A2A2A2" transform="translate(172,28)" />
    <path
        d="M0 0 C0.66 0 1.32 0 2 0 C2 0.99 2 1.98 2 3 C1.34 3 0.68 3 0 3 C-0.33 3.99 -0.66 4.98 -1 6 C-1.99 6 -2.98 6 -4 6 C-2.84826645 3.53199953 -1.95216435 1.95216435 0 0 Z "
        fill="#A1A1A1" transform="translate(176,15)" />
    <path
        d="M0 0 C2.4375 0.75 2.4375 0.75 5 2 C5.8125 4.125 5.8125 4.125 6 6 C3.37812506 4.95125002 2.20628639 4.35068687 0.75 1.875 C0.5025 1.25625 0.255 0.6375 0 0 Z "
        fill="#A2A2A2" transform="translate(159,15)" />
    <path
        d="M0 0 C0.66 0.33 1.32 0.66 2 1 C1.67 1.99 1.34 2.98 1 4 C-1.0625 4.6875 -1.0625 4.6875 -3 5 C-3.66 4.01 -4.32 3.02 -5 2 C-2.625 0.9375 -2.625 0.9375 0 0 Z "
        fill="#7B7B7B" transform="translate(232,247)" />
    <path
        d="M0 0 C1.9375 0.75 1.9375 0.75 4 2 C4.75 4.125 4.75 4.125 5 6 C3.0625 5.25 3.0625 5.25 1 4 C0.25 1.875 0.25 1.875 0 0 Z "
        fill="#6D6D6D" transform="translate(251,145)" />
    <path d="M0 0 C1.98 1.65 3.96 3.3 6 5 C4.68 5.33 3.36 5.66 2 6 C0 2.25 0 2.25 0 0 Z "
        fill="#838383" transform="translate(286,259)" />
    <path
        d="M0 0 C0.66 0 1.32 0 2 0 C1.8125 1.875 1.8125 1.875 1 4 C-1.5625 5.25 -1.5625 5.25 -4 6 C-2.84826645 3.53199953 -1.95216435 1.95216435 0 0 Z "
        fill="#9A9A9A" transform="translate(163,28)" />
</svg>