<svg version="1.0" xmlns="http://www.w3.org/2000/svg"
    width="176.000000pt" height="118.000000pt" viewBox="0 0 176.000000 118.000000"
    preserveAspectRatio="xMidYMid meet">
    <g transform="translate(0.000000,118.000000) scale(0.100000,-0.100000)"
        fill="#000000" stroke="none">
        <path
            d="M602 1017 c-27 -9 -41 -26 -70 -81 -38 -71 -62 -94 -62 -58 0 32 -24
44 -74 37 -53 -8 -61 -16 -46 -45 8 -15 21 -20 50 -20 48 0 50 -8 7 -35 -22
-14 -37 -35 -47 -65 -8 -25 -22 -50 -30 -57 -12 -9 -15 -37 -15 -138 0 -163 2
-165 145 -165 62 0 100 4 102 11 5 16 600 17 606 1 2 -8 36 -12 102 -12 143 0
145 2 145 165 0 101 -3 129 -15 138 -8 7 -22 32 -30 57 -10 30 -25 51 -47 65
-43 27 -41 35 7 35 30 0 42 5 51 21 15 28 4 36 -58 45 l-53 7 -6 -32 c-4 -18
-12 -30 -18 -28 -6 1 -27 33 -45 69 -19 36 -44 72 -55 79 -29 19 -495 24 -544
6z m527 -22 c7 -7 -81 -10 -264 -10 -249 0 -305 4 -235 18 47 10 489 2 499 -8z
m-8 -31 c30 -5 39 -13 54 -46 9 -21 15 -40 14 -42 -2 -1 -42 1 -89 5 -47 4
-152 7 -235 7 -82 0 -188 -3 -235 -7 -47 -4 -87 -6 -89 -4 -2 1 4 21 14 42 13
29 25 41 44 44 43 7 483 7 522 1z m49 -108 c0 -2 -26 -29 -57 -60 l-58 -56
-190 0 -190 0 -57 56 c-32 31 -58 58 -58 60 0 2 137 4 305 4 168 0 305 -2 305
-4z m-591 -59 c36 -30 76 -59 88 -65 30 -16 366 -16 396 0 12 6 52 36 89 65
l67 55 52 -28 c64 -35 81 -60 82 -124 2 -39 6 -50 19 -50 21 0 33 -85 23 -165
-7 -60 -6 -59 -92 -68 -32 -4 -43 -2 -43 9 0 9 18 16 50 20 28 4 53 10 56 15
3 5 7 32 10 61 l5 53 -21 -51 c-20 -49 -22 -52 -67 -58 -60 -8 -796 -8 -856 0
-45 6 -47 8 -66 58 -21 54 -27 39 -15 -36 5 -31 11 -38 29 -38 43 0 85 -13 85
-25 0 -9 -12 -12 -42 -8 -87 9 -86 8 -93 68 -10 80 2 165 23 165 13 0 17 11
19 50 1 64 21 93 81 124 26 14 49 25 51 26 2 0 34 -24 70 -53z" />
        <path
            d="M455 750 c-7 -11 10 -53 26 -67 8 -6 41 -14 74 -18 33 -3 77 -8 98
-11 59 -9 44 12 -37 50 -80 38 -153 59 -161 46z m83 -37 c5 -17 -26 -29 -40
-15 -6 6 -7 15 -3 22 9 14 37 9 43 -7z" />
        <path
            d="M1228 749 c-50 -11 -188 -77 -188 -90 0 -6 18 -8 45 -5 25 3 66 9 93
12 60 8 81 19 93 51 13 34 2 42 -43 32z m10 -36 c5 -17 -26 -29 -40 -15 -6 6
-7 15 -3 22 9 14 37 9 43 -7z" />
        <path d="M840 675 l24 -25 23 22 c13 12 23 23 23 25 0 2 -21 3 -47 3 l-46 0
23 -25z" />
        <path
            d="M416 630 c-2 -3 6 -34 18 -70 l21 -65 47 -9 c43 -8 81 0 51 11 -13 5
-83 96 -83 108 0 4 27 5 60 1 40 -5 60 -3 60 4 0 5 -6 10 -12 11 -7 0 -46 4
-86 8 -40 4 -75 4 -76 1z" />
        <path
            d="M1231 629 c-40 -4 -78 -12 -85 -19 -8 -9 4 -10 52 -4 34 3 62 3 62
-1 0 -13 -62 -94 -76 -99 -8 -3 -14 -11 -14 -17 0 -13 88 -5 103 10 12 12 46
130 39 134 -4 2 -40 0 -81 -4z" />
        <path
            d="M594 588 c-9 -14 78 -67 121 -73 23 -4 108 -5 188 -3 144 3 145 3
187 34 24 17 42 34 41 37 -1 10 -532 14 -537 5z" />
        <path
            d="M104 241 c-27 -12 -47 -69 -38 -105 14 -58 95 -76 140 -31 35 35 28
59 -19 63 -28 2 -37 0 -37 -12 0 -10 9 -16 22 -16 21 0 21 -1 6 -16 -23 -23
-66 -11 -74 20 -14 57 26 91 72 61 14 -9 32 -15 41 -13 13 3 13 6 -3 26 -21
25 -77 37 -110 23z" />
        <path
            d="M323 233 c-3 -10 -17 -45 -29 -77 -13 -33 -24 -63 -24 -68 0 -16 30
-8 40 12 14 26 56 26 72 0 16 -26 53 -28 43 -2 -4 9 -16 42 -28 72 -11 30 -25
61 -30 68 -14 17 -37 15 -44 -5z m37 -52 c0 -5 3 -16 6 -25 4 -12 0 -16 -15
-16 -22 0 -25 8 -15 34 7 17 24 22 24 7z" />
        <path
            d="M470 163 l0 -83 48 0 c26 0 57 3 70 6 26 7 40 49 24 74 -6 10 -9 26
-6 36 7 32 -8 41 -73 46 l-63 4 0 -83z m100 32 c0 -16 -55 -22 -64 -6 -8 13 5
21 36 21 18 0 28 -5 28 -15z m7 -69 c-4 -10 -18 -16 -37 -16 -23 0 -30 4 -30
19 0 14 8 21 28 23 33 4 47 -5 39 -26z" />
        <path
            d="M702 240 c-46 -19 -56 -97 -16 -137 21 -21 32 -25 65 -20 49 6 66 20
74 58 17 75 -50 128 -123 99z m66 -36 c26 -18 29 -56 6 -78 -18 -19 -28 -20
-55 -6 -23 13 -26 62 -3 84 19 20 24 20 52 0z" />
        <path
            d="M972 240 c-45 -19 -56 -97 -17 -135 32 -33 84 -33 122 -1 24 21 26
25 11 31 -9 4 -28 -1 -43 -11 -36 -23 -75 -6 -75 33 0 16 4 34 9 42 10 15 60
19 70 5 10 -15 53 -36 59 -30 3 3 0 6 -7 6 -7 0 -10 4 -7 9 3 5 -2 19 -12 30
-19 25 -76 35 -110 21z" />
        <path
            d="M1189 223 c-40 -105 -49 -129 -49 -135 0 -16 30 -7 40 12 14 26 56
26 70 0 6 -11 20 -20 30 -20 11 0 20 1 20 3 0 1 -15 38 -34 82 -36 88 -59 105
-77 58z m44 -52 c5 -22 0 -31 -20 -31 -13 0 -18 31 -6 43 11 12 21 8 26 -12z" />
        <path
            d="M1340 163 c0 -76 2 -83 20 -83 16 0 20 7 20 30 0 20 5 30 15 30 8 0
21 -13 30 -30 9 -18 23 -30 35 -30 24 0 26 13 5 30 -17 14 -20 37 -6 42 5 2
12 14 16 28 10 40 -13 57 -77 62 l-58 5 0 -84z m98 25 c-2 -16 -10 -23 -28
-23 -18 0 -26 7 -28 23 -3 19 1 22 28 22 27 0 31 -3 28 -22z" />
        <path
            d="M1550 237 c-28 -14 -39 -57 -18 -75 7 -6 31 -12 53 -14 27 -2 40 -8
40 -18 0 -21 -49 -25 -65 -6 -16 20 -40 21 -40 2 0 -22 40 -46 77 -46 42 0 77
32 67 63 -9 30 -7 29 -59 34 -48 6 -61 27 -23 39 14 4 25 1 33 -10 15 -20 45
-21 45 -2 0 19 -39 46 -65 46 -11 0 -31 -6 -45 -13z" />
    </g>
</svg>